<svg width="3322" height="1133" viewBox="0 0 3322 1133" fill="none" xmlns="http://www.w3.org/2000/svg">
<g filter="url(#filter0_f)">
<ellipse cx="362" cy="898" rx="2" ry="8" fill="#C4C4C4"/>
</g>
<g filter="url(#filter1_d)">
<path d="M921.655 453.544C950.621 456.762 977.656 465.13 1002.76 478.647C1028.51 492.164 1050.39 509.544 1068.41 530.785C1087.08 551.383 1101.56 575.199 1111.86 602.233C1122.81 628.624 1128.28 656.624 1128.28 686.234V857.13C1128.28 874.51 1121.84 889.314 1108.97 901.544C1096.09 913.774 1081.61 919.889 1065.52 919.889C1042.99 919.889 1024.97 909.59 1011.45 888.992C1008.23 890.28 1005.33 891.889 1002.76 893.82C1000.18 895.107 997.61 896.395 995.035 897.682C979.587 904.763 963.816 910.234 947.725 914.096C930.989 917.958 913.288 919.889 894.621 919.889C846.345 919.889 803.219 907.016 765.242 881.268C727.264 854.878 698.943 821.084 680.276 779.889C673.839 765.084 668.69 749.958 664.828 734.51C661.609 719.061 660 702.969 660 686.234C660 669.498 661.609 653.406 664.828 637.958C668.69 622.509 673.839 607.383 680.276 592.578C698.943 550.739 727.264 516.946 765.242 491.199C803.219 465.452 846.345 452.578 894.621 452.578C899.77 452.578 904.276 452.578 908.138 452.578C912.644 452.578 917.15 452.9 921.655 453.544ZM893.655 794.372C908.46 794.372 922.299 791.797 935.173 786.647C948.69 780.854 960.276 773.13 969.931 763.475C979.587 753.82 987.311 742.556 993.104 729.682C998.897 716.165 1001.79 701.682 1001.79 686.234C1001.79 672.073 998.897 658.555 993.104 645.682C987.311 632.165 979.265 620.578 968.966 610.923C959.311 600.624 947.725 592.578 934.207 586.785C921.334 580.992 907.816 578.096 893.655 578.096C879.495 578.096 865.977 580.992 853.104 586.785C840.23 592.578 828.644 600.624 818.345 610.923C808.69 620.578 800.966 632.165 795.173 645.682C789.379 658.555 786.483 672.073 786.483 686.234C786.483 701.038 789.379 715.199 795.173 728.716C801.609 741.59 809.655 752.854 819.311 762.51C829.609 772.165 841.196 779.889 854.069 785.682C866.943 791.475 880.138 794.372 893.655 794.372Z" fill="url(#paint0_linear)"/>
<path d="M1001.03 710.373C1001.03 675.236 1029.51 646.752 1064.65 646.752V646.752C1099.79 646.752 1128.27 675.236 1128.27 710.373V855.792C1128.27 890.929 1099.79 919.413 1064.65 919.413V919.413C1029.51 919.413 1001.03 890.929 1001.03 855.792V710.373Z" fill="url(#paint1_linear)"/>
</g>
<g filter="url(#filter2_d)">
<path d="M1970.66 453.544C1999.62 456.762 2026.66 465.13 2051.76 478.647C2077.51 492.164 2099.39 509.544 2117.41 530.785C2136.08 551.383 2150.56 575.199 2160.86 602.233C2171.81 628.624 2177.28 656.624 2177.28 686.234V857.13C2177.28 874.51 2170.84 889.314 2157.97 901.544C2145.09 913.774 2130.61 919.889 2114.52 919.889C2091.99 919.889 2073.97 909.59 2060.45 888.992C2057.23 890.28 2054.33 891.889 2051.76 893.82C2049.18 895.107 2046.61 896.395 2044.03 897.682C2028.59 904.763 2012.82 910.234 1996.72 914.096C1979.99 917.958 1962.29 919.889 1943.62 919.889C1895.35 919.889 1852.22 907.016 1814.24 881.268C1776.26 854.878 1747.94 821.084 1729.28 779.889C1722.84 765.084 1717.69 749.958 1713.83 734.51C1710.61 719.061 1709 702.969 1709 686.234C1709 669.498 1710.61 653.406 1713.83 637.958C1717.69 622.509 1722.84 607.383 1729.28 592.578C1747.94 550.739 1776.26 516.946 1814.24 491.199C1852.22 465.452 1895.35 452.578 1943.62 452.578C1948.77 452.578 1953.28 452.578 1957.14 452.578C1961.64 452.578 1966.15 452.9 1970.66 453.544ZM1942.66 794.372C1957.46 794.372 1971.3 791.797 1984.17 786.647C1997.69 780.854 2009.28 773.13 2018.93 763.475C2028.59 753.82 2036.31 742.556 2042.1 729.682C2047.9 716.165 2050.79 701.682 2050.79 686.234C2050.79 672.073 2047.9 658.555 2042.1 645.682C2036.31 632.165 2028.26 620.578 2017.97 610.923C2008.31 600.624 1996.72 592.578 1983.21 586.785C1970.33 580.992 1956.82 578.096 1942.66 578.096C1928.49 578.096 1914.98 580.992 1902.1 586.785C1889.23 592.578 1877.64 600.624 1867.35 610.923C1857.69 620.578 1849.97 632.165 1844.17 645.682C1838.38 658.555 1835.48 672.073 1835.48 686.234C1835.48 701.038 1838.38 715.199 1844.17 728.716C1850.61 741.59 1858.66 752.854 1868.31 762.51C1878.61 772.165 1890.2 779.889 1903.07 785.682C1915.94 791.475 1929.14 794.372 1942.66 794.372Z" fill="url(#paint2_linear)"/>
<path d="M2050.03 710.373C2050.03 675.236 2078.51 646.752 2113.65 646.752V646.752C2148.79 646.752 2177.27 675.236 2177.27 710.373V855.792C2177.27 890.929 2148.79 919.413 2113.65 919.413V919.413C2078.51 919.413 2050.03 890.929 2050.03 855.792V710.373Z" fill="url(#paint3_linear)"/>
</g>
<g filter="url(#filter3_d)">
<path d="M2502.66 453.544C2531.62 456.762 2558.66 465.13 2583.76 478.647C2609.51 492.164 2631.39 509.544 2649.41 530.785C2668.08 551.383 2682.56 575.199 2692.86 602.233C2703.81 628.624 2709.28 656.624 2709.28 686.234V857.13C2709.28 874.51 2702.84 889.314 2689.97 901.544C2677.09 913.774 2662.61 919.889 2646.52 919.889C2623.99 919.889 2605.97 909.59 2592.45 888.992C2589.23 890.28 2586.33 891.889 2583.76 893.82C2581.18 895.107 2578.61 896.395 2576.03 897.682C2560.59 904.763 2544.82 910.234 2528.72 914.096C2511.99 917.958 2494.29 919.889 2475.62 919.889C2427.35 919.889 2384.22 907.016 2346.24 881.268C2308.26 854.878 2279.94 821.084 2261.28 779.889C2254.84 765.084 2249.69 749.958 2245.83 734.51C2242.61 719.061 2241 702.969 2241 686.234C2241 669.498 2242.61 653.406 2245.83 637.958C2249.69 622.509 2254.84 607.383 2261.28 592.578C2279.94 550.739 2308.26 516.946 2346.24 491.199C2384.22 465.452 2427.35 452.578 2475.62 452.578C2480.77 452.578 2485.28 452.578 2489.14 452.578C2493.64 452.578 2498.15 452.9 2502.66 453.544ZM2474.66 794.372C2489.46 794.372 2503.3 791.797 2516.17 786.647C2529.69 780.854 2541.28 773.13 2550.93 763.475C2560.59 753.82 2568.31 742.556 2574.1 729.682C2579.9 716.165 2582.79 701.682 2582.79 686.234C2582.79 672.073 2579.9 658.555 2574.1 645.682C2568.31 632.165 2560.26 620.578 2549.97 610.923C2540.31 600.624 2528.72 592.578 2515.21 586.785C2502.33 580.992 2488.82 578.096 2474.66 578.096C2460.49 578.096 2446.98 580.992 2434.1 586.785C2421.23 592.578 2409.64 600.624 2399.35 610.923C2389.69 620.578 2381.97 632.165 2376.17 645.682C2370.38 658.555 2367.48 672.073 2367.48 686.234C2367.48 701.038 2370.38 715.199 2376.17 728.716C2382.61 741.59 2390.66 752.854 2400.31 762.51C2410.61 772.165 2422.2 779.889 2435.07 785.682C2447.94 791.475 2461.14 794.372 2474.66 794.372Z" fill="url(#paint4_linear)"/>
<path d="M2582.03 710.373C2582.03 675.236 2610.51 646.752 2645.65 646.752V646.752C2680.79 646.752 2709.27 675.236 2709.27 710.373V855.792C2709.27 890.929 2680.79 919.413 2645.65 919.413V919.413C2610.51 919.413 2582.03 890.929 2582.03 855.792V710.373Z" fill="url(#paint5_linear)"/>
</g>
<g filter="url(#filter4_d)">
<rect x="1197.68" y="793.889" width="469.308" height="125.589" rx="62.7947" fill="url(#paint6_linear)"/>
<rect x="1197.59" y="451.757" width="469.308" height="125.589" rx="62.7947" fill="url(#paint7_linear)"/>
<rect x="1172.51" y="856.811" width="610.52" height="125.589" rx="62.7947" transform="rotate(-44.8817 1172.51 856.811)" fill="url(#paint8_linear)"/>
</g>
<g filter="url(#filter5_d)">
<path d="M2835.76 919.069C2818.38 919.069 2803.9 913.598 2792.31 902.655C2780.72 891.069 2774.29 875.942 2773 857.276V678.655C2773.64 647.758 2780.08 618.793 2792.31 591.758C2805.18 564.08 2821.92 540.264 2842.52 520.31C2863.76 499.712 2888.22 483.62 2915.9 472.034C2944.22 459.804 2974.15 453.045 3005.69 451.758C3023.71 451.758 3038.52 457.873 3050.1 470.103C3062.33 482.333 3069.09 497.137 3070.38 514.517C3070.38 531.896 3064.26 546.7 3052.03 558.93C3039.8 570.517 3024.68 576.632 3006.66 577.275C2991.85 577.275 2978.01 580.172 2965.14 585.965C2952.26 591.114 2941 598.517 2931.35 608.172C2921.69 617.827 2913.97 629.413 2908.17 642.93C2902.38 655.804 2899.48 669.965 2899.48 685.413V861.138C2898.2 877.873 2891.76 891.712 2880.17 902.655C2869.23 913.598 2854.43 919.069 2835.76 919.069Z" fill="url(#paint9_linear)"/>
</g>
<g filter="url(#filter6_d)">
<path d="M111 262.391C111 221.306 144.306 188 185.391 188V188C226.476 188 259.781 221.306 259.781 262.391V683.938H111V262.391Z" fill="url(#paint10_linear)"/>
<circle cx="353.5" cy="683.5" r="242.5" fill="url(#paint11_linear)"/>
<g filter="url(#filter7_i)">
<path fill-rule="evenodd" clip-rule="evenodd" d="M312.34 519.247C298.649 517.323 285.991 526.861 284.067 540.552L275.805 599.341H222.716C209.021 599.341 197.919 610.443 197.919 624.138C197.919 637.833 209.021 648.935 222.716 648.935H268.835L260.405 708.918H212.797C199.102 708.918 188 720.02 188 733.715C188 747.41 199.102 758.512 212.797 758.512H253.435L244.79 820.019C242.866 833.709 252.405 846.367 266.095 848.292C279.786 850.216 292.444 840.677 294.368 826.987L303.991 758.512H378.666L370.021 820.019C368.097 833.709 377.636 846.367 391.326 848.292C405.017 850.216 417.675 840.677 419.599 826.987L429.222 758.512H485.563C499.258 758.512 510.36 747.41 510.36 733.715C510.36 720.02 499.258 708.918 485.563 708.918H436.192L444.622 648.935H495.482C509.177 648.935 520.279 637.833 520.279 624.138C520.279 610.443 509.177 599.341 495.482 599.341H451.592L458.875 547.519C460.8 533.829 451.261 521.171 437.571 519.247C423.88 517.323 411.222 526.861 409.298 540.552L401.036 599.341H326.361L333.645 547.519C335.569 533.829 326.03 521.171 312.34 519.247ZM319.391 648.935L310.961 708.918H385.635L394.066 648.935H319.391Z" fill="white"/>
</g>
</g>
<path d="M3157.06 472.893H3144.49V507H3134.38V472.893H3122.04V465.093H3157.06V472.893ZM3174.62 465.093L3183.98 494.249L3193.3 465.093H3206.6V507H3196.47V497.214L3197.45 477.181L3187.31 507H3180.64L3170.48 477.153L3171.46 497.214V507H3161.35V465.093H3174.62Z" fill="#C52C34"/>
<defs>
<filter id="filter0_f" x="330" y="860" width="64" height="76" filterUnits="userSpaceOnUse" color-interpolation-filters="sRGB">
<feFlood flood-opacity="0" result="BackgroundImageFix"/>
<feBlend mode="normal" in="SourceGraphic" in2="BackgroundImageFix" result="shape"/>
<feGaussianBlur stdDeviation="15" result="effect1_foregroundBlur"/>
</filter>
<filter id="filter1_d" x="656" y="452.578" width="476.276" height="475.311" filterUnits="userSpaceOnUse" color-interpolation-filters="sRGB">
<feFlood flood-opacity="0" result="BackgroundImageFix"/>
<feColorMatrix in="SourceAlpha" type="matrix" values="0 0 0 0 0 0 0 0 0 0 0 0 0 0 0 0 0 0 127 0"/>
<feOffset dy="4"/>
<feGaussianBlur stdDeviation="2"/>
<feColorMatrix type="matrix" values="0 0 0 0 0 0 0 0 0 0 0 0 0 0 0 0 0 0 0.25 0"/>
<feBlend mode="normal" in2="BackgroundImageFix" result="effect1_dropShadow"/>
<feBlend mode="normal" in="SourceGraphic" in2="effect1_dropShadow" result="shape"/>
</filter>
<filter id="filter2_d" x="1705" y="452.578" width="476.276" height="475.311" filterUnits="userSpaceOnUse" color-interpolation-filters="sRGB">
<feFlood flood-opacity="0" result="BackgroundImageFix"/>
<feColorMatrix in="SourceAlpha" type="matrix" values="0 0 0 0 0 0 0 0 0 0 0 0 0 0 0 0 0 0 127 0"/>
<feOffset dy="4"/>
<feGaussianBlur stdDeviation="2"/>
<feColorMatrix type="matrix" values="0 0 0 0 0 0 0 0 0 0 0 0 0 0 0 0 0 0 0.25 0"/>
<feBlend mode="normal" in2="BackgroundImageFix" result="effect1_dropShadow"/>
<feBlend mode="normal" in="SourceGraphic" in2="effect1_dropShadow" result="shape"/>
</filter>
<filter id="filter3_d" x="2237" y="452.578" width="476.276" height="475.311" filterUnits="userSpaceOnUse" color-interpolation-filters="sRGB">
<feFlood flood-opacity="0" result="BackgroundImageFix"/>
<feColorMatrix in="SourceAlpha" type="matrix" values="0 0 0 0 0 0 0 0 0 0 0 0 0 0 0 0 0 0 127 0"/>
<feOffset dy="4"/>
<feGaussianBlur stdDeviation="2"/>
<feColorMatrix type="matrix" values="0 0 0 0 0 0 0 0 0 0 0 0 0 0 0 0 0 0 0.25 0"/>
<feBlend mode="normal" in2="BackgroundImageFix" result="effect1_dropShadow"/>
<feBlend mode="normal" in="SourceGraphic" in2="effect1_dropShadow" result="shape"/>
</filter>
<filter id="filter4_d" x="1168.51" y="426" width="529.214" height="527.799" filterUnits="userSpaceOnUse" color-interpolation-filters="sRGB">
<feFlood flood-opacity="0" result="BackgroundImageFix"/>
<feColorMatrix in="SourceAlpha" type="matrix" values="0 0 0 0 0 0 0 0 0 0 0 0 0 0 0 0 0 0 127 0"/>
<feOffset dy="4"/>
<feGaussianBlur stdDeviation="2"/>
<feColorMatrix type="matrix" values="0 0 0 0 0 0 0 0 0 0 0 0 0 0 0 0 0 0 0.25 0"/>
<feBlend mode="normal" in2="BackgroundImageFix" result="effect1_dropShadow"/>
<feBlend mode="normal" in="SourceGraphic" in2="effect1_dropShadow" result="shape"/>
</filter>
<filter id="filter5_d" x="2769" y="451.758" width="305.38" height="475.311" filterUnits="userSpaceOnUse" color-interpolation-filters="sRGB">
<feFlood flood-opacity="0" result="BackgroundImageFix"/>
<feColorMatrix in="SourceAlpha" type="matrix" values="0 0 0 0 0 0 0 0 0 0 0 0 0 0 0 0 0 0 127 0"/>
<feOffset dy="4"/>
<feGaussianBlur stdDeviation="2"/>
<feColorMatrix type="matrix" values="0 0 0 0 0 0 0 0 0 0 0 0 0 0 0 0 0 0 0.25 0"/>
<feBlend mode="normal" in2="BackgroundImageFix" result="effect1_dropShadow"/>
<feBlend mode="normal" in="SourceGraphic" in2="effect1_dropShadow" result="shape"/>
</filter>
<filter id="filter6_d" x="107" y="188" width="493" height="746" filterUnits="userSpaceOnUse" color-interpolation-filters="sRGB">
<feFlood flood-opacity="0" result="BackgroundImageFix"/>
<feColorMatrix in="SourceAlpha" type="matrix" values="0 0 0 0 0 0 0 0 0 0 0 0 0 0 0 0 0 0 127 0"/>
<feOffset dy="4"/>
<feGaussianBlur stdDeviation="2"/>
<feColorMatrix type="matrix" values="0 0 0 0 0 0 0 0 0 0 0 0 0 0 0 0 0 0 0.25 0"/>
<feBlend mode="normal" in2="BackgroundImageFix" result="effect1_dropShadow"/>
<feBlend mode="normal" in="SourceGraphic" in2="effect1_dropShadow" result="shape"/>
</filter>
<filter id="filter7_i" x="188" y="519" width="332.279" height="329.538" filterUnits="userSpaceOnUse" color-interpolation-filters="sRGB">
<feFlood flood-opacity="0" result="BackgroundImageFix"/>
<feBlend mode="normal" in="SourceGraphic" in2="BackgroundImageFix" result="shape"/>
<feColorMatrix in="SourceAlpha" type="matrix" values="0 0 0 0 0 0 0 0 0 0 0 0 0 0 0 0 0 0 127 0" result="hardAlpha"/>
<feOffset dy="4"/>
<feComposite in2="hardAlpha" operator="arithmetic" k2="-1" k3="1"/>
<feColorMatrix type="matrix" values="0 0 0 0 0 0 0 0 0 0 0 0 0 0 0 0 0 0 0.25 0"/>
<feBlend mode="normal" in2="shape" result="effect1_innerShadow"/>
</filter>
<linearGradient id="paint0_linear" x1="984.012" y1="716.889" x2="746.012" y2="811.889" gradientUnits="userSpaceOnUse">
<stop stop-color="#C52C34"/>
<stop offset="0.957962" stop-color="#9D0B12"/>
</linearGradient>
<linearGradient id="paint1_linear" x1="1013" y1="690" x2="1064.65" y2="919.413" gradientUnits="userSpaceOnUse">
<stop offset="0.121543" stop-color="#C52C34"/>
<stop offset="1" stop-color="#FF3038"/>
</linearGradient>
<linearGradient id="paint2_linear" x1="2033.01" y1="716.889" x2="1795.01" y2="811.889" gradientUnits="userSpaceOnUse">
<stop stop-color="#C52C34"/>
<stop offset="0.957962" stop-color="#9D0B12"/>
</linearGradient>
<linearGradient id="paint3_linear" x1="2057" y1="678.5" x2="2113.65" y2="919.413" gradientUnits="userSpaceOnUse">
<stop offset="0.141709" stop-color="#C52C34"/>
<stop offset="1" stop-color="#FF3038"/>
</linearGradient>
<linearGradient id="paint4_linear" x1="2565.01" y1="716.889" x2="2327.01" y2="811.889" gradientUnits="userSpaceOnUse">
<stop stop-color="#C52C34"/>
<stop offset="0.957962" stop-color="#9D0B12"/>
</linearGradient>
<linearGradient id="paint5_linear" x1="2588" y1="689.5" x2="2645.65" y2="919.413" gradientUnits="userSpaceOnUse">
<stop offset="0.125678" stop-color="#C52C34"/>
<stop offset="1" stop-color="#FF3038"/>
</linearGradient>
<linearGradient id="paint6_linear" x1="1197.68" y1="856.683" x2="1666.99" y2="856.683" gradientUnits="userSpaceOnUse">
<stop stop-color="#C52C34"/>
<stop offset="1" stop-color="#FF3038"/>
</linearGradient>
<linearGradient id="paint7_linear" x1="1197.59" y1="514.552" x2="1666.9" y2="514.552" gradientUnits="userSpaceOnUse">
<stop stop-color="#FF3038"/>
<stop offset="1" stop-color="#C52C34"/>
</linearGradient>
<linearGradient id="paint8_linear" x1="1743.55" y1="920.005" x2="1173.6" y2="914.37" gradientUnits="userSpaceOnUse">
<stop stop-color="#C52C34"/>
<stop offset="1" stop-color="#9D0B12"/>
</linearGradient>
<linearGradient id="paint9_linear" x1="3016.38" y1="451.89" x2="2815.38" y2="918.89" gradientUnits="userSpaceOnUse">
<stop stop-color="#9D0B12"/>
<stop offset="0.510417" stop-color="#C52C34"/>
<stop offset="1" stop-color="#FF3038"/>
</linearGradient>
<linearGradient id="paint10_linear" x1="185.391" y1="188" x2="185.391" y2="683.938" gradientUnits="userSpaceOnUse">
<stop stop-color="#FF3038"/>
<stop offset="0.586458" stop-color="#C52C34"/>
</linearGradient>
<linearGradient id="paint11_linear" x1="462" y1="576" x2="180" y2="554" gradientUnits="userSpaceOnUse">
<stop offset="0.0581559" stop-color="#9D0B12"/>
<stop offset="1" stop-color="#C52C34"/>
</linearGradient>
</defs>
</svg>
