<svg width="31" height="31" viewBox="0 0 31 31" fill="none" xmlns="http://www.w3.org/2000/svg">
<path d="M8 15H22C23.0709 18.3675 23.0156 19.3866 22 20H8V15Z" fill="#00DCDC"/>
<path d="M1 25.5H15C15.3674 28.6232 15.2355 29.6156 15 30.5H1V25.5Z" fill="#00DCDC"/>
<path d="M29.9183 19.9147H28.0883V4.11503C28.0883 3.93132 27.9683 3.80884 27.8183 3.7476L13.1783 0.0120122C13.0583 -0.0186074 12.9683 0.0120122 12.8783 0.0732513C12.7883 0.13449 12.7283 0.256969 12.7283 0.379447V0.838741L9.51832 0.0120122C9.39832 -0.0186074 9.30832 0.0120122 9.21832 0.0732513C9.12832 0.13449 9.06832 0.256969 9.06832 0.379447V2.3391L5.85832 1.51237C5.73832 1.48175 5.64832 1.51237 5.55832 1.57361C5.46832 1.63485 5.40832 1.75733 5.40832 1.87981V14.9544H0.63832C0.42832 14.9544 0.27832 15.1075 0.27832 15.3218V20.3128C0.27832 20.5271 0.42832 20.6802 0.63832 20.6802H7.59832V24.9057H0.63832C0.42832 24.9057 0.27832 25.0588 0.27832 25.2732V30.2641C0.27832 30.4785 0.42832 30.6316 0.63832 30.6316H15.2783H22.5983H29.9183C30.1283 30.6316 30.2783 30.4785 30.2783 30.2641V25.2732V20.3128C30.2783 20.0984 30.1283 19.9147 29.9183 19.9147ZM29.5583 24.9057H22.5983H15.6383V20.6802H22.5983H29.5583V24.9057ZM8.31832 15.6892H22.2083V19.9147H15.2783H8.31832V15.6892ZM13.4483 9.04479L20.0483 10.2389V14.9544H13.4483V9.04479ZM22.9583 19.9147V15.3218C22.9583 15.1075 22.8083 14.9544 22.5983 14.9544H20.7683V10.3614L27.3683 11.5556V19.9147H22.9583ZM27.3383 10.7901L20.7383 9.59594V2.73715L27.3383 4.42123V10.7901ZM20.0483 2.55344V9.50408L13.4483 8.30992V0.86936L20.0483 2.55344ZM12.7283 1.60423V14.9544H9.78832V0.86936L12.7283 1.60423ZM6.12832 2.36972L9.06832 3.10459V14.9544H7.95832H6.12832V2.36972ZM0.99832 15.6892H7.59832V19.9147H0.99832V15.6892ZM8.31832 20.6802H14.9183V24.9057H8.31832V20.6802ZM0.99832 25.6406H7.95832H14.9183V29.8661H0.99832V25.6406ZM15.6383 25.6406H22.2383V29.8661H15.6383V25.6406ZM29.5583 29.8967H22.9583V25.6406H29.5583V29.8967Z" fill="#54596B"/>
</svg>
