<svg width="41" height="26" viewBox="0 0 41 26" fill="none" xmlns="http://www.w3.org/2000/svg">
<ellipse cx="33.5" cy="13" rx="6.5" ry="6" fill="#00DCDC"/>
<path d="M33.641 18.4353C36.8101 18.4353 39.3725 16.0054 39.3725 13C39.3725 9.99591 36.8078 7.56471 33.641 7.56471C30.4728 7.56471 27.9094 9.99591 27.9094 13C27.9094 16.0054 30.4718 18.4353 33.641 18.4353ZM34.0975 4.34655H35.4832V5.66064H34.0975V4.34655ZM31.6824 4.34655H33.0678V5.66064H31.6824V4.34655ZM34.0975 1.95179H35.4832V3.2662H34.0975V1.95179ZM31.6824 1.95179H33.0678V3.2662H31.6824V1.95179ZM33.0147 17.5416V13C33.0147 12.834 33.0865 12.6844 33.2021 12.576L35.93 9.98914L36.8159 10.8293L34.2672 13.246V17.5416H33.0147ZM30.7451 19.0275V24.812H36.5368V19.0269C35.6536 19.4099 34.6731 19.623 33.641 19.623C32.6088 19.623 31.628 19.4102 30.7451 19.0275ZM37.7896 18.326V25.4061C37.7896 25.734 37.5091 26 37.163 26H30.1189C29.7728 26 29.4923 25.734 29.4923 25.4061V18.3263C27.7184 17.0819 26.657 15.1149 26.657 13C26.657 10.8899 27.7082 8.922 29.4923 7.67272V0.593855C29.4923 0.265977 29.7728 0 30.1189 0H37.163C37.5091 0 37.7896 0.265977 37.7896 0.593855V7.67368C39.5673 8.92007 40.6249 10.8799 40.6249 13C40.6249 15.1094 39.5714 17.0761 37.7896 18.326ZM30.7451 6.97215C31.628 6.59011 32.6088 6.37701 33.641 6.37701C34.6734 6.37701 35.6543 6.59011 36.5368 6.97247V1.18803H30.7451V6.97215Z" fill="#54596B"/>
<rect x="16" y="22" width="10" height="3" fill="#00DCDC"/>
<rect x="1" y="22" width="10" height="3" fill="#00DCDC"/>
<path d="M26.9828 25.0107C26.8705 23.786 24.9173 2.48564 24.7341 0.486957C24.7088 0.211438 24.4656 0 24.174 0H2.81094C2.51934 0 2.27614 0.211438 2.25089 0.486957C2.0724 2.43377 0.116671 23.7622 0.0021542 25.0107C-0.0264048 25.3221 0.23265 25.59 0.562203 25.59H10.6815C10.9395 25.59 11.1643 25.4235 11.227 25.1862L13.4925 16.5925L15.758 25.1862C15.8205 25.4235 16.0454 25.59 16.3034 25.59H26.4227C26.7523 25.59 27.0113 25.3221 26.9828 25.0107ZM3.32635 1.06625H23.6586L23.8052 2.66563H3.17974L3.32635 1.06625ZM1.17538 24.5238L1.32205 22.9244H10.6642L10.2426 24.5238H1.17538ZM13.4925 13.8613C13.2345 13.8613 13.0097 14.0278 12.947 14.2651L10.9453 21.8581H1.41982L2.78874 6.92957C2.85153 6.93197 2.48308 6.92978 5.62192 6.93063V7.99688C5.62192 8.29133 5.87361 8.53001 6.18411 8.53001C6.4946 8.53001 6.74629 8.29133 6.74629 7.99688V6.93063H7.30848C7.61897 6.93063 7.87066 6.69195 7.87066 6.39751C7.87066 6.10306 7.61897 5.86438 7.30848 5.86438H2.88639L3.08197 3.73188H12.9303V9.59626C12.9303 9.89071 13.182 10.1294 13.4925 10.1294H15.179C15.4894 10.1294 15.7412 9.89071 15.7412 9.59626C15.7412 9.30182 15.4894 9.06314 15.179 9.06314H14.0546V3.73188H23.903L24.0986 5.86438H19.6765C19.366 5.86438 19.1143 6.10306 19.1143 6.39751C19.1143 6.69195 19.366 6.93063 19.6765 6.93063H20.2387V7.99688C20.2387 8.29133 20.4904 8.53001 20.8009 8.53001C21.1113 8.53001 21.363 8.29133 21.363 7.99688V6.93063C22.0769 6.93042 24.1469 6.93149 24.1962 6.92957L25.5651 21.8581H16.0396L14.0379 14.2651C13.9753 14.0278 13.7504 13.8613 13.4925 13.8613ZM16.7423 24.5238L16.3207 22.9244H25.6629L25.8095 24.5238H16.7423Z" fill="#54596B"/>
</svg>
