<svg width="31" height="27" viewBox="0 0 31 27" fill="none" xmlns="http://www.w3.org/2000/svg">
<path d="M12.0001 1H19.0001C19.4052 2.73093 19.8927 3.80984 19.0001 5H12.0001C10.2992 4.6234 10.7924 3.40383 12.0001 1Z" fill="#00DCDC"/>
<path d="M11.9451 0C11.3387 0.0447291 11.038 0.423861 10.8478 0.902828C10.5192 2.00289 10.2056 3.20706 9.94228 4.17704H7.39612C7.40096 3.80556 7.39646 3.40592 7.38548 3.04576C7.22661 2.41993 6.76074 2.18386 6.25622 2.08852H3.76332C3.13093 2.13436 2.81753 2.56101 2.63406 3.04576C2.60682 3.43829 2.62342 3.85126 2.62342 4.25316C1.26102 4.5639 0.237061 5.82091 0.237061 7.30982V23.3218C0.237061 25.0409 1.59649 26.4546 3.27328 26.4546H27.2008C28.8776 26.4546 30.2371 25.0409 30.2371 23.3218V7.30982C30.2371 5.59069 28.8776 4.17704 27.2008 4.17704H20.5318C20.2352 3.03225 19.8984 1.85342 19.6263 0.902828C19.4592 0.30579 19.0142 0.0917208 18.529 0H11.9451ZM12.1156 1.39235H18.3585L19.1149 4.17704H11.3592L12.1156 1.39235ZM3.98703 3.48087H6.03248V4.17704H3.98703V3.48087ZM3.18802 5.56938C11.5367 5.57843 20.0486 5.56935 27.2008 5.56938C28.137 5.56938 28.8734 6.32912 28.8734 7.30982V23.3218C28.8734 24.3024 28.137 25.0622 27.2008 25.0622H3.27325C2.33704 25.0622 1.60066 24.3024 1.60066 23.3218V7.30982C1.60066 6.35964 2.29351 5.6147 3.18802 5.56938V5.56938ZM15.1411 6.6245C12.4053 6.65861 9.73465 8.03533 8.12055 10.5405C7.86981 10.8393 7.94104 11.3576 8.26265 11.5745C8.58426 11.7914 9.07908 11.6547 9.24981 11.3019C11.4273 7.92238 15.869 6.99006 19.1788 9.21339C21.7589 10.9466 22.9504 14.1625 22.1511 17.2085C22.0441 17.5881 22.3225 18.0309 22.7051 18.0896C23.0357 18.1434 23.3873 17.9091 23.4721 17.5784C24.4222 13.9578 22.9914 10.1204 19.9245 8.06036C18.4524 7.07151 16.7826 6.60403 15.1411 6.6245V6.6245ZM15.237 9.39834C12.0444 9.39834 9.44157 12.0559 9.44157 15.3158C9.44157 18.5757 12.0444 21.2333 15.237 21.2333C18.4297 21.2333 21.0325 18.5757 21.0325 15.3158C21.0325 12.0559 18.4297 9.39834 15.237 9.39834V9.39834ZM15.237 10.7907C17.6927 10.7907 19.6688 12.8084 19.6688 15.3158C19.6688 17.8232 17.6927 19.8409 15.237 19.8409C12.7813 19.8409 10.8052 17.8232 10.8052 15.3158C10.8052 12.8084 12.7813 10.7907 15.237 10.7907ZM7.00194 13.0641C6.03827 16.7363 7.52239 20.633 10.6667 22.6691C14.6349 25.2387 19.9221 24.034 22.4387 19.9823C22.6629 19.6754 22.5727 19.1809 22.2554 18.9769C21.9381 18.7729 21.4624 18.9036 21.2882 19.2426C19.1663 22.6589 14.7476 23.6609 11.4018 21.4943C8.75623 19.7812 7.51216 16.5237 8.32296 13.4339C8.42994 13.0544 8.15153 12.6116 7.76899 12.5528C7.37654 12.5215 7.05521 12.8856 7.00194 13.0641V13.0641Z" fill="#54596B"/>
</svg>
