<svg width="24" height="24" viewBox="0 0 24 24" fill="none" xmlns="http://www.w3.org/2000/svg">
<path d="M8.55212 22.3333C8.91456 22.3333 9.20837 22.0394 9.20837 21.677C9.20837 21.3146 8.91456 21.0208 8.55212 21.0208C8.18969 21.0208 7.89587 21.3146 7.89587 21.677C7.89587 22.0394 8.18969 22.3333 8.55212 22.3333Z" fill="#00DCDC" stroke="#00DCDC" stroke-width="2" stroke-miterlimit="10" stroke-linecap="round" stroke-linejoin="round"/>
<path d="M17.7396 22.3333C18.1021 22.3333 18.3959 22.0394 18.3959 21.677C18.3959 21.3146 18.1021 21.0208 17.7396 21.0208C17.3772 21.0208 17.0834 21.3146 17.0834 21.677C17.0834 22.0394 17.3772 22.3333 17.7396 22.3333Z" fill="#00DCDC" stroke="#00DCDC" stroke-width="2" stroke-miterlimit="10" stroke-linecap="round" stroke-linejoin="round"/>
<path d="M1.33337 1.33325H3.95837L6.58337 17.0833H19.7084L22.3334 5.27075H5.27087" stroke="#54596B" stroke-width="2" stroke-linecap="round" stroke-linejoin="round"/>
</svg>
