<svg width="14" height="14" viewBox="0 0 14 14" fill="none" xmlns="http://www.w3.org/2000/svg">
<path d="M13.7083 7C13.7083 10.7049 10.7049 13.7083 7 13.7083C3.29509 13.7083 0.291667 10.7049 0.291667 7C0.291667 3.29509 3.29509 0.291667 7 0.291667C10.7049 0.291667 13.7083 3.29509 13.7083 7Z" fill="url(#paint0_linear)" stroke="#AF781D" stroke-width="0.583333"/>
<line x1="3.73288" y1="5.89215" x2="10.7046" y2="5.89215" stroke="#AF781D" stroke-width="0.465754" stroke-linecap="round"/>
<line x1="5.45236" y1="10.2222" x2="6.68301" y2="3.24289" stroke="#AF781D" stroke-width="0.465398" stroke-linecap="round"/>
<line x1="7.55074" y1="10.7216" x2="8.79136" y2="3.68569" stroke="#AF781D" stroke-width="0.46722" stroke-linecap="round"/>
<line x1="3.30213" y1="7.6354" x2="10.6979" y2="7.6354" stroke="#AF781D" stroke-width="0.479257" stroke-linecap="round"/>
<path d="M10.927 7.03784C10.927 9.21246 9.16412 10.9753 6.9895 10.9753C4.81488 10.9753 3.052 9.21246 3.052 7.03784C3.052 4.86322 4.81488 3.10034 6.9895 3.10034C9.16412 3.10034 10.927 4.86322 10.927 7.03784Z" fill="url(#paint1_radial)" stroke="#AF781D" stroke-width="0.65625"/>
<defs>
<linearGradient id="paint0_linear" x1="2.76125" y1="0.726644" x2="11.917" y2="12.5467" gradientUnits="userSpaceOnUse">
<stop stop-color="#AF781D"/>
<stop offset="0.14375" stop-color="#F6E05F"/>
<stop offset="0.279167" stop-color="#FCF791"/>
<stop offset="0.409375" stop-color="#F6E05F"/>
<stop offset="0.523958" stop-color="#DA9523"/>
<stop offset="0.648958" stop-color="#F6E05F"/>
<stop offset="0.76875" stop-color="#FCF791"/>
<stop offset="0.872917" stop-color="#F6E05F"/>
<stop offset="1" stop-color="#AF781D"/>
</linearGradient>
<radialGradient id="paint1_radial" cx="0" cy="0" r="1" gradientUnits="userSpaceOnUse" gradientTransform="translate(-0.616034 7.03784) rotate(90) scale(4.9)">
<stop offset="0.21101" stop-color="#FED02F" stop-opacity="0.4"/>
<stop offset="0.583333" stop-color="#FED02F" stop-opacity="0"/>
</radialGradient>
</defs>
</svg>
