<svg width="31" height="30" viewBox="0 0 31 30" fill="none" xmlns="http://www.w3.org/2000/svg">
<path d="M21.4599 25.6314L21.6417 23.449L23.3694 22.9034C23.5058 22.8579 23.6422 22.7215 23.6877 22.5851L24.3242 20.1755L25.2335 21.1302C25.3245 21.2212 25.4609 21.2666 25.5518 21.2666C25.6882 21.2666 25.7791 21.2212 25.8701 21.1302L26.8703 20.0845L28.1888 20.5392C28.3252 20.5847 28.4616 20.5847 28.598 20.4937C28.7344 20.4028 28.7799 20.2664 28.7799 20.13V10.2639L29.5073 9.99111C29.6892 9.94565 29.7801 9.76379 29.7801 9.58192V5.49C29.7801 5.30814 29.6892 5.12627 29.4619 5.08081L15.2311 0.0340994C15.1401 -0.0113665 15.0492 -0.0113665 14.9128 0.0340994L0.318261 5.08081C0.0909316 5.12627 0 5.30814 0 5.49V9.53646C0 9.71832 0.136397 9.90018 0.318261 9.94565L0.954782 10.173V22.5397C0.954782 22.7215 1.09118 22.9034 1.22758 22.9489L14.9583 28.1774C15.0947 28.2229 15.1856 28.2229 15.2765 28.1774L21.1871 25.9951C21.3235 25.9951 21.4599 25.8132 21.4599 25.6314ZM28.8253 9.26366L15.5493 14.2194V11.2187L28.8253 6.17199V9.26366ZM12.1394 24.0855C9.91155 24.0855 8.13838 22.2669 8.13838 20.0391C8.13838 17.8112 9.95702 15.9926 12.1394 15.9926C14.3672 15.9926 16.1404 17.8112 16.1404 20.0391C16.1858 22.2669 14.3672 24.0855 12.1394 24.0855ZM15.0947 0.943416L27.9615 5.53546L15.0947 10.4003C7.36546 7.53596 9.1841 8.21795 1.81863 5.49L15.0947 0.943416ZM0.909316 6.12652C11.2755 9.94565 9.0477 9.12726 14.64 11.1732V14.174L0.909316 9.2182V6.12652ZM1.8641 10.4912L14.64 15.1288V15.7653C13.9125 15.3561 13.0487 15.0833 12.1394 15.0833C9.41143 15.0833 7.22907 17.2656 7.22907 20.0391C7.22907 22.767 9.45689 24.9948 12.1394 24.9948C13.0487 24.9948 13.9125 24.722 14.64 24.3128V27.0863L1.8641 22.2214V10.4912ZM21.0507 22.7215C20.8688 22.767 20.7324 22.9489 20.7324 23.1307L20.5506 25.3131L15.5493 27.1317V23.6309C16.5041 22.7215 17.0951 21.4485 17.0951 20.0391C17.0951 18.6296 16.5041 17.3566 15.5493 16.4927V15.2197L27.8251 10.6276V19.4935L26.8248 19.1752C26.643 19.1297 26.4611 19.1752 26.3702 19.3116L25.5063 20.2209L24.3697 18.9933C24.2333 18.8569 24.0969 18.8115 23.915 18.8569C23.7332 18.9024 23.6422 19.0388 23.5968 19.1752L22.8238 22.1305L21.0507 22.7215Z" fill="#54596B"/>
<path d="M15.0947 0.943416L27.9615 5.53546L15.0947 10.4003C7.36546 7.53596 9.1841 8.21795 1.81863 5.49L15.0947 0.943416Z" fill="#54596B"/>
<path d="M29.6892 23.1761L28.007 22.6305C27.8251 22.585 27.6432 22.6305 27.5523 22.7669L26.5975 23.7671L25.3699 22.4486C25.279 22.3122 25.0971 22.2667 24.9153 22.3122C24.7334 22.3577 24.6425 22.4941 24.597 22.6305L23.7786 25.8586L21.8236 26.4496C21.6417 26.4951 21.5053 26.6769 21.5053 26.8588L21.278 29.4958C21.278 29.6322 21.3235 29.8141 21.4599 29.905C21.5963 29.9959 21.7327 30.0414 21.9145 29.9505L29.7801 27.0861C29.962 27.0407 30.0984 26.8588 30.0984 26.6769V23.6307C30.0075 23.4034 29.8711 23.2215 29.6892 23.1761ZM29.0981 26.3587L22.1873 28.9048L22.3237 27.268L24.1878 26.6769C24.3242 26.6315 24.4606 26.4951 24.5061 26.3587L25.1881 23.6762L26.1883 24.7674C26.2793 24.8583 26.4157 24.9038 26.5066 24.9038C26.643 24.9038 26.7339 24.8583 26.8248 24.7674L27.916 23.5853L29.0527 23.949V26.3587H29.0981Z" fill="#54596B"/>
<path d="M12.952 23.4194L10.3274 20.9776V20.7725H11.1069C11.9466 20.7725 12.6329 20.0855 12.6329 19.2464C12.6329 18.4067 11.9459 17.7204 11.1069 17.7204H10.0025" stroke="#54596B" stroke-width="0.657418" stroke-miterlimit="10"/>
<path d="M10.0025 17.7201H14.0944" stroke="#54596B" stroke-width="0.657418" stroke-miterlimit="10"/>
<path d="M10.0025 19.246H14.0944" stroke="#54596B" stroke-width="0.657418" stroke-miterlimit="10"/>
<path d="M1.91489 5.42554L15.1596 0.957458L28.0851 5.42554L15.1596 10.2128L1.91489 5.42554Z" fill="#00DCDC"/>
</svg>
