<?xml version="1.0" encoding="UTF-8"?>
<svg width="752pt" height="752pt" version="1.1" viewBox="0 0 752 752" xmlns="http://www.w3.org/2000/svg">
 <g>
  <path d="m376 572.44c122.14 0 217.85-33.531 217.85-76.34 0-19.32-19.559-36.75-52.094-50.059 4.7383-7.7695 8.4336-16.129 10.988-24.863 4.0273-14.207 1.2305-40.207-14.207-65.355-13.449-22.445-41.488-51.523-98.27-63.598-42.621-9.1406-91.496 11.648-134.59 40.066v-0.003907c-4.5977-1.2695-9.043-3.0312-13.262-5.2578-7.7188-5.2109-11.129-7.4844-13.734-6.25-2.9297-0.45703-5.8984-0.56641-8.8555-0.33203l-8.2422-11.176 3.6953-3.457c5.8242-5.3984 4.7344-17 1.043-25.48-4.7344-11.508-13.922-17.996-24.012-17.523v0.003906c-5.4727-0.023437-10.633 2.5391-13.922 6.9141-3.3008 5.2422-4.6875 11.465-3.9297 17.617-5.9609-0.80469-12.02-0.46875-17.855 0.99219-5.5898 1.4688-11.934 3.125-15.156 9.0938-3.2188 5.9688-2.4141 15.203 2.8398 30.547 3.0781 9.0938 8.0508 14.207 14.68 15.723 8.9492 1.8477 17.902-4.7344 22.828-8.8555l14.207 15.438h0.003906c-0.18359 3.2695-0.089844 6.5508 0.28516 9.8047 0.19922 1.1641 0.80078 2.2188 1.7031 2.9844 2.7109 2.1445 5.2188 4.5352 7.4844 7.1484-13.023 11.035-24.77 21.879-34.715 31.492v0.003906c-12.008 11.953-17.66 28.879-15.25 45.652-0.023438 0.23438-0.023438 0.47266 0 0.71094-29.742 13.164-47.359 29.691-47.359 48.02 0 42.812 95.711 76.34 217.85 76.34zm-127.87-233.95-12.645-13.637c-0.89453-0.99219-2.168-1.5586-3.5039-1.5625-1.3359 0.003906-2.6094 0.57031-3.5039 1.5625-2.6055 2.8906-11.555 10.844-17.617 9.4727-3.125-0.61719-5.6836-3.8359-7.625-9.4727-4.0742-11.934-5.2578-19.652-3.457-22.969 1.1836-2.1797 4.4062-3.1719 9.1875-4.4062 6.5234-1.5391 13.324-1.4414 19.797 0.28516 1.6602 0.53516 3.4766 0.11719 4.7344-1.0898 1.293-1.207 1.8047-3.0312 1.3281-4.7344-0.80469-3.0781-2.1328-12.172 1.2305-16.766 1.668-2.0078 4.1641-3.1445 6.7734-3.0781 8.7148-0.42578 13.262 8.0977 14.777 11.746 3.2188 7.625 2.3672 13.875 1.2773 14.871l-6.7734 6.3477v-0.003906c-1.7578 1.6289-2.0195 4.3125-0.61719 6.25l8.6211 11.699c-1.7266 0.95313-3.3203 2.1328-4.7383 3.5039-3.3984 3.3086-5.8945 7.4336-7.2461 11.98zm13.641-4.7344c3.9766-3.6484 10.133-4.7344 18.281-2.9375h0.80469c1.1367 0.71094 3.125 1.9414 6.3945 4.168 5.7617 3.1055 11.863 5.5352 18.184 7.2461 21.594 7.1055 54.227 17.809 71.844 47.359 12.359 20.695 1.6094 57.586-21.266 73.074-21.168 14.207-45.133 6.0156-67.578-23.301-16.906-22.117-16.625-34.949-16.625-46.176 0-11.223 0-21.926-16.336-36.133-0.47656-5.9219-0.050781-17.758 6.1562-23.68zm-34.43 74.73c8.4766-8.2422 19.891-18.941 33.152-30.074v0.003907c1.5078 4.7344 2.0742 9.7266 1.6562 14.68 0 12.172-0.23828 27.324 18.516 52.094 20.176 26.379 39.023 33.812 53.848 33.812 9.4922-0.09375 18.742-3.0117 26.566-8.3828 27.137-18.562 39.07-61.043 24.391-86.047-16.859-28.414-46.223-40.871-67.816-48.352 32.723-20.602 68.766-36.703 101.82-36.703 6.3633-0.023437 12.715 0.62891 18.941 1.9414 53.328 11.414 79.656 38.5 92.113 59.242 13.734 22.637 16.34 45.891 12.977 57.965l-0.28516 0.94531v0.003907c-0.91797-13.508-7.6328-25.961-18.422-34.145-18.941-14.492-65.023-37.223-95.57-52.094-13.023-6.3945-23.254-11.414-27.277-13.781-2.6797-1.9297-6.2461-2.0977-9.0938-0.42578-3.6953 3.1875-5.2266 8.2227-3.9297 12.93 2.1797 16.387 20.789 48.352 75.773 70.184-21.121 7.957-60.285 26.52-60.285 56.641 0 2.6133 2.1172 4.7344 4.7344 4.7344 2.6172 0 4.7344-2.1211 4.7344-4.7344 0-33.152 65.828-51.621 66.301-51.809 1.9922-0.55859 3.3906-2.3398 3.457-4.4062 0.11328-2.1211-1.2031-4.0586-3.2188-4.7344-61.141-20.363-77.145-51.477-80.508-60.523-1.3125-2.9844-1.957-6.2148-1.8945-9.4727 4.7344 2.6992 14.633 7.5312 26.805 13.496 30.262 14.871 75.773 37.367 94.004 51.242 24.059 18.516 15.203 52.094 3.3164 82.402-8.0508 20.695-83.445 28.414-130.38 28.793-53.137-0.75781-119.06-6.2969-156.61-26.898-11.254-6.5195-18.742-17.996-20.176-30.926-2.0469-13.781 2.5352-27.719 12.359-37.602zm303.09 71.938c2.3086 2.3945 3.6875 5.5352 3.8828 8.8555-0.046874 20.41-65.023 43-158.32 43s-158.27-22.777-158.27-43.191v0.003906c0.33203-3.6406 2.0234-7.0234 4.7344-9.4727 2.6016 2.2578 5.4258 4.2422 8.4297 5.918 38.551 21.125 104.71 27.043 158.61 27.801 0.21875 0.027344 0.44141 0.027344 0.66016 0h14.965c9.3438 0.019531 18.676-0.56641 27.941-1.7539 37.652-2.6484 86.902-10.465 97.324-31.16zm-322.7-23.016c1.832 5.5078 4.5859 10.664 8.1445 15.25-4.6641 4.2969-7.4102 10.285-7.625 16.621 0 34.191 86.43 52.473 167.74 52.473s167.74-18.469 167.74-52.664v0.003906c-0.32813-7.2539-3.7852-14.008-9.4688-18.52 1.8477-5.0664 3.5508-10.277 4.7344-15.535 29.078 12.125 45.371 26.809 45.371 41.062 0 32.297-83.73 66.871-208.38 66.871-124.65 0-208.38-34.574-208.38-66.871 0-13.355 14.207-27.137 40.113-38.691z"/>
  <path d="m450.83 233.17c0.66406 0.47266 1.1836 0.94531 1.8008 1.4219h-0.003906c3.4805 2.3789 5.8008 6.1055 6.3945 10.277 0.035157 6.9219-2.3789 13.633-6.8203 18.941-1.0781 1.4766-2.25 2.8867-3.5039 4.2148-1.8359 1.8477-1.8359 4.832 0 6.6797 0.88281 0.875 2.0742 1.3672 3.3164 1.3711 1.2656-0.003907 2.4766-0.51562 3.3633-1.418 0.61719-0.61719 14.68-15.105 13.023-30.547-1.0078-7.8125-5.6172-14.699-12.457-18.613-1.1211-0.73047-2.1836-1.5547-3.1719-2.4609-2.7969-2.4531-4.6562-5.8008-5.2578-9.4727-0.39453-7.2773 1.6172-14.484 5.7305-20.504 1.1406-1.8984 2.4062-3.7188 3.7891-5.4492 0.91016-0.96484 1.3711-2.2695 1.2695-3.5938-0.097656-1.3242-0.75-2.543-1.7891-3.3672-2.0078-1.6445-4.9648-1.3711-6.6328 0.61719-0.56641 0.66406-14.207 17.051-11.555 33.152v-0.003907c1.1406 7.8125 5.7305 14.699 12.504 18.754z"/>
  <path d="m409.15 233.17c0.66406 0.47266 1.1836 0.94531 1.8008 1.4219 3.4766 2.3789 5.7969 6.1055 6.3906 10.277 0.035156 6.9219-2.3789 13.633-6.8164 18.941-1.9414 2.5586-3.5039 4.168-3.5039 4.2148h-0.003907c-1.8359 1.8477-1.8359 4.832 0 6.6797 0.88281 0.875 2.0742 1.3672 3.3164 1.3711 1.2656-0.003907 2.4766-0.51562 3.3633-1.418 0.61719-0.61719 14.68-15.105 13.023-30.547-1.0078-7.8125-5.6172-14.699-12.457-18.613-1.1211-0.73047-2.1836-1.5547-3.1719-2.4609-2.7969-2.4531-4.6562-5.8008-5.2578-9.4727-0.38672-7.2617 1.6289-14.453 5.7305-20.457 1.1289-1.9102 2.3789-3.7461 3.7422-5.4961 0.91406-0.94531 1.3945-2.2266 1.3242-3.5391-0.070312-1.3164-0.67969-2.5391-1.6914-3.3828-1.0078-0.84375-2.3203-1.2305-3.625-1.0664-1.3047 0.16406-2.4844 0.85938-3.2539 1.9297-0.56641 0.66406-14.207 17.051-11.602 33.152v-0.003906c1.2695 7.7383 5.9219 14.512 12.691 18.469z"/>
  <path d="m367.1 233.17c0.66406 0.47266 1.1836 0.94531 1.8008 1.4219 3.4766 2.3789 5.7969 6.1055 6.3945 10.277 0.039062 6.9297-2.3945 13.648-6.8672 18.941-1.8945 2.5586-3.457 4.168-3.457 4.2148-1.8398 1.8477-1.8398 4.832 0 6.6797 0.87891 0.875 2.0703 1.3672 3.3125 1.3711 1.2656-0.003907 2.4766-0.51562 3.3633-1.418 0.61719-0.61719 14.68-15.105 13.023-30.547-1.0273-7.8047-5.6328-14.684-12.457-18.613-1.1211-0.73047-2.1836-1.5547-3.1719-2.4609-2.7969-2.4531-4.6523-5.8008-5.2578-9.4727-0.38281-7.2617 1.6289-14.453 5.7305-20.457 1.1289-1.9102 2.3789-3.7461 3.7422-5.4961 1.7539-1.9844 1.5625-5.0195-0.42578-6.7695-1.9883-1.7539-5.0195-1.5625-6.7734 0.42578-0.61719 0.66406-14.207 17.051-11.602 33.152v-0.003907c1.1797 7.8359 5.8242 14.727 12.645 18.754z"/>
 </g>
</svg>
