<svg width="26" height="32" viewBox="0 0 26 32" fill="none" xmlns="http://www.w3.org/2000/svg">
<path d="M11.534 8.93625C12.1751 7.22611 14.5941 7.22611 15.2353 8.93624L15.2746 9.04128C15.5402 9.74958 16.2173 10.2188 16.9737 10.2188H17.4212C19.1116 10.2188 19.7497 12.4298 18.3193 13.3305V13.3305C17.6426 13.7566 17.3627 14.6108 17.6434 15.3596V15.3596C18.2338 16.9343 16.5025 18.4009 15.0794 17.5048L14.4532 17.1106C13.8002 16.6993 12.9691 16.6993 12.316 17.1106L11.6899 17.5048C10.2668 18.4009 8.53545 16.9343 9.12582 15.3596V15.3596C9.40654 14.6108 9.12665 13.7566 8.44994 13.3305V13.3305C7.01953 12.4298 7.65763 10.2188 9.34799 10.2188H9.79552C10.552 10.2188 11.2291 9.74958 11.4946 9.04128L11.534 8.93625Z" fill="#00DCDC"/>
<path d="M19.8507 11.0815C19.7778 10.8676 19.675 10.6648 19.5453 10.4789C19.322 10.1633 19.0219 9.90805 18.6726 9.73654C18.4396 9.61935 18.1892 9.53945 17.9307 9.49983L16.0762 9.25236C16.047 9.2468 16.0194 9.23531 15.995 9.21864C15.9705 9.20197 15.9499 9.18048 15.9344 9.15553L15.6835 8.66059L15.138 7.58465L15.1053 7.52009C14.9098 7.13234 14.6077 6.80665 14.2335 6.58023C13.8592 6.35382 13.4279 6.23582 12.9889 6.23972C12.5475 6.23782 12.1144 6.35772 11.7385 6.58588C11.3626 6.81405 11.0588 7.14137 10.8616 7.53085L10.8398 7.58465L10.3053 8.66059L10.0435 9.17705C10.0304 9.20393 10.0104 9.22699 9.98554 9.24396C9.96068 9.26094 9.93176 9.27125 9.90164 9.27388L8.05801 9.54287C7.82733 9.57293 7.60282 9.63827 7.39255 9.73654C7.01583 9.90834 6.69209 10.1757 6.45437 10.5112C6.32243 10.7035 6.21954 10.9138 6.14892 11.1353C6.03941 11.4712 6.01 11.8275 6.06298 12.1765C6.11596 12.5255 6.2499 12.8577 6.45437 13.1473C6.5435 13.279 6.64584 13.4016 6.75982 13.5131L8.10164 14.7827C8.12127 14.8001 8.13644 14.8219 8.14592 14.8462C8.1554 14.8705 8.15892 14.8967 8.15619 14.9226L7.83983 16.7194C7.76392 17.145 7.81176 17.583 7.97779 17.9829C8.14382 18.3828 8.42126 18.7281 8.77801 18.9789C9.13498 19.2377 9.55863 19.3921 10.0004 19.4244C10.4423 19.4568 10.8844 19.3658 11.2762 19.1618L12.9344 18.3011C12.9905 18.2795 13.0528 18.2795 13.1089 18.3011L14.7671 19.1511C15.158 19.3514 15.5979 19.4402 16.0372 19.4075C16.4765 19.3747 16.8978 19.2217 17.2537 18.9657C17.6097 18.7097 17.8861 18.3608 18.052 17.9582C18.2179 17.5557 18.2665 17.1155 18.1926 16.6871L17.8653 14.8903C17.8609 14.8627 17.8636 14.8345 17.8731 14.8081C17.8826 14.7818 17.8987 14.7583 17.9198 14.7397L19.2507 13.4593C19.3609 13.355 19.4596 13.2396 19.5453 13.115C19.752 12.8223 19.8871 12.4864 19.9401 12.1336C19.9931 11.7808 19.9625 11.4207 19.8507 11.0815V11.0815ZM17.7344 11.9207L16.3926 13.2011C16.1193 13.4639 15.915 13.7883 15.7972 14.1463C15.6794 14.5043 15.6516 14.8852 15.7162 15.2561L16.0435 17.053C16.0485 17.0843 16.0439 17.1164 16.0303 17.1452C16.0167 17.1739 15.9947 17.198 15.9671 17.2143C15.9412 17.2384 15.908 17.2536 15.8726 17.2575C15.8371 17.2613 15.8014 17.2538 15.7707 17.2359L14.1126 16.3966C13.7743 16.2217 13.3981 16.1303 13.0162 16.1303C12.6343 16.1303 12.2581 16.2217 11.9198 16.3966L10.2616 17.2574C10.2309 17.275 10.1952 17.2825 10.1599 17.2786C10.1245 17.2747 10.0914 17.2597 10.0653 17.2359C10.0377 17.2195 10.0157 17.1955 10.0021 17.1667C9.98846 17.1379 9.98388 17.1058 9.98892 17.0745L10.3053 15.2777C10.3694 14.9049 10.3392 14.5223 10.2174 14.1638C10.0956 13.8053 9.886 13.482 9.6071 13.2226L8.27619 11.953C8.25061 11.9327 8.23201 11.9051 8.22293 11.8739C8.21386 11.8428 8.21476 11.8097 8.2255 11.779C8.23625 11.7484 8.25631 11.7218 8.28296 11.7029C8.3096 11.684 8.34153 11.6736 8.37437 11.6732L10.218 11.4043C10.596 11.349 10.9549 11.2048 11.2644 10.9838C11.5739 10.7628 11.8249 10.4715 11.9962 10.1346V10.1239L12.8253 8.48844C12.8395 8.45793 12.8627 8.43236 12.8919 8.41508C12.9211 8.3978 12.9549 8.38962 12.9889 8.39161C13.0231 8.38864 13.0573 8.39641 13.0867 8.41381C13.1161 8.4312 13.1391 8.45733 13.1526 8.48844L13.2398 8.66059L13.7962 9.73654L13.9926 10.1239C14.1638 10.4598 14.415 10.7497 14.7247 10.969C15.0344 11.1882 15.3933 11.3302 15.7707 11.3827L17.6253 11.641C17.6588 11.6414 17.6915 11.6519 17.7188 11.6711C17.7461 11.6904 17.7668 11.7174 17.778 11.7486C17.7842 11.7787 17.7835 11.8097 17.7759 11.8395C17.7684 11.8693 17.7542 11.897 17.7344 11.9207V11.9207Z" fill="#54596B" stroke="white" stroke-width="0.5"/>
<path d="M13 1C10.6568 0.998516 8.36448 1.67412 6.40626 2.94334C4.44803 4.21256 2.90971 6.01979 1.98135 8.14175C1.05299 10.2637 0.775268 12.6074 1.18249 14.8833C1.58972 17.1592 2.66405 19.2676 4.27276 20.948V29.9214C4.27226 30.1043 4.31908 30.2842 4.40881 30.4443C4.49853 30.6043 4.62818 30.7391 4.78548 30.8359C4.94523 30.9315 5.12655 30.9864 5.31315 30.9958C5.49975 31.0052 5.68579 30.9688 5.85457 30.8897L8.98548 29.3404L12.5528 30.9113C12.6944 30.9698 12.8464 31 13 31C13.1536 31 13.3056 30.9698 13.4472 30.9113L17.0145 29.3404L20.1454 30.8897C20.3142 30.9688 20.5002 31.0053 20.6869 30.9959C20.8735 30.9865 21.0548 30.9316 21.2145 30.8359C21.3718 30.7391 21.5015 30.6043 21.5912 30.4443C21.6809 30.2842 21.7277 30.1043 21.7272 29.9214V20.948C23.3359 19.2676 24.4103 17.1593 24.8175 14.8834C25.2247 12.6074 24.947 10.2637 24.0187 8.14178C23.0903 6.01982 21.552 4.21259 19.5938 2.94337C17.6356 1.67414 15.3432 0.998529 13 1ZM19.5455 28.1784L17.5273 27.1885C17.3836 27.1186 17.2262 27.0805 17.0661 27.0768C16.9059 27.0731 16.7469 27.1039 16.6 27.167L13 28.7486L9.40003 27.167C9.25427 27.0997 9.09471 27.0667 8.93383 27.0704C8.77296 27.0741 8.61515 27.1146 8.47276 27.1885L6.45457 28.1784V22.7448C8.39983 24.0015 10.6747 24.6708 13 24.6708C15.3254 24.6708 17.6002 24.0015 19.5455 22.7448V28.1784ZM20.6364 18.9037C20.3071 19.3145 19.9421 19.6961 19.5455 20.0442C17.748 21.6375 15.4167 22.5189 13 22.5189C10.5833 22.5189 8.25202 21.6375 6.45457 20.0442C6.05799 19.6961 5.69297 19.3145 5.36366 18.9037C4.94156 18.3949 4.57585 17.843 4.27276 17.2575C3.55342 15.8916 3.17917 14.3746 3.18185 12.8354C3.18185 10.2672 4.21626 7.80413 6.05753 5.98812C7.89879 4.17211 10.3961 3.15189 13 3.15189C15.604 3.15189 18.1013 4.17211 19.9425 5.98812C21.7838 7.80413 22.8182 10.2672 22.8182 12.8354C22.8209 14.3746 22.4466 15.8916 21.7273 17.2575C21.4242 17.843 21.0585 18.3949 20.6364 18.9037Z" fill="#54596B" stroke="white" stroke-width="0.5"/>
</svg>
