<svg width="30" height="30" viewBox="0 0 30 30" fill="none" xmlns="http://www.w3.org/2000/svg">
<path d="M25.2416 24.6208L23.0695 25.0204L21.6125 24.2165C21.0458 23.3486 21.14 23.5045 21.7733 23.0052L23.9875 23.0494L25.2416 24.6208Z" fill="#00DCDC"/>
<path d="M19.5 28L16.9773 28.5254L15.8266 27.6299C15.466 26.7862 15.5241 26.9368 16.1573 26.569L18.0905 26.8794L19.5 28Z" fill="#00DCDC"/>
<path d="M22.1915 26.4341L20.4448 26.5141L19 26C18.6878 25.2485 19 25 19.7351 24.7713L21.4491 25.0485L22.1915 26.4341Z" fill="#00DCDC"/>
<path d="M15.8018 22.1497L16.2316 24.1497L15.48 25.3992C14.649 25.8375 14.7983 25.7657 14.3018 25.1497L14.3017 23.1497L15.8018 22.1497Z" fill="#00DCDC"/>
<path d="M3.96454 8.2984C4.73752 8.2984 5.36415 8.04516 5.36415 7.73279C5.36415 7.42041 4.73752 7.16718 3.96454 7.16718C3.19156 7.16718 2.56494 7.42041 2.56494 7.73279C2.56494 8.04516 3.19156 8.2984 3.96454 8.2984Z" fill="#54596B"/>
<path d="M19.5 8H27V14.5L20 9C18.5935 9.02347 18.2236 8.89349 19.5 8Z" fill="#00DCDC"/>
<path d="M6.74652 18.5L7.61951 21.5C7.121 22.2963 6.73878 22.2833 6 22V20L6.74652 18.5Z" fill="#00DCDC"/>
<path d="M22 18.5L22.4297 20.5L21.6781 21.7495C20.8471 22.1878 20.9965 22.116 20.4999 21.5L20.4999 19.5L22 18.5Z" fill="#00DCDC"/>
<path d="M26.6174 20.0597L25.1388 21.8071L23.6806 21.8086C22.8718 21.2028 23.0113 21.3162 23.2758 20.3887L25.1388 19.5L26.6174 20.0597Z" fill="#00DCDC"/>
<path d="M18.5815 20.4253L19.5 21.5C19.205 22.5898 18.9865 23.1453 18.135 23.6601C17.2878 24.0661 17.9726 23.6346 17.5 22.9999L17.5001 21.5L18.5815 20.4253Z" fill="#00DCDC"/>
<path d="M6.69841 23.6088C8.57745 23.6088 10.1063 22.0892 10.1063 20.222C10.1063 18.3543 8.57745 16.8351 6.69841 16.8351C4.81896 16.8351 3.29016 18.3543 3.29016 20.222C3.29016 22.0892 4.81896 23.6088 6.69841 23.6088ZM6.69841 17.5262C8.19409 17.5262 9.41083 18.7357 9.41083 20.222C9.41083 21.7079 8.19409 22.917 6.69841 22.917C5.20273 22.917 3.98559 21.7079 3.98559 20.222C3.98559 18.7357 5.2028 17.5262 6.69841 17.5262Z" fill="#54596B"/>
<path d="M6.70492 22.5794C6.71259 22.5794 6.7206 22.5794 6.72828 22.5794C7.44828 22.5651 8.02184 21.8976 8.00615 21.091C8.00151 20.8438 7.8618 20.5358 7.63471 20.0536C7.52813 19.8275 7.41354 19.5849 7.32184 19.3495C7.08154 18.7331 6.98769 18.1611 6.98688 18.1552C6.95928 17.9856 6.82981 17.8641 6.63792 17.8641C6.46516 17.867 6.32034 17.9957 6.29826 18.1661C6.29785 18.1716 6.22272 18.7416 6.0066 19.3664C5.92553 19.6014 5.82279 19.8453 5.72685 20.0739C5.51713 20.573 5.38846 20.892 5.39358 21.1409C5.40078 21.5214 5.53705 21.8792 5.77694 22.1483C6.02525 22.4267 6.35427 22.5794 6.70492 22.5794ZM6.36868 20.3401C6.47014 20.0984 6.57841 19.8397 6.66459 19.5908C6.66546 19.5883 6.66627 19.5862 6.66714 19.5837C6.66883 19.5887 6.67098 19.5938 6.67307 19.5988C6.77029 19.8486 6.89128 20.1064 7.00466 20.3468C7.13285 20.6185 7.30864 20.9915 7.31073 21.1045C7.31881 21.5298 7.05179 21.8816 6.71468 21.8875C6.55208 21.9331 6.41366 21.8209 6.29732 21.6901C6.16697 21.5441 6.09311 21.3441 6.08887 21.1273C6.08678 21.0109 6.24938 20.6236 6.36868 20.3401Z" fill="#54596B"/>
<path d="M29.9883 28.309C29.9229 27.9217 29.5875 27.5606 28.9634 27.2062C28.6764 27.0417 27.5463 25.4191 28.1092 23.8084C28.302 23.2558 28.4158 22.6516 28.4454 22.0112C28.4754 21.384 28.3817 20.7171 28.1654 19.9912C28.671 19.9428 28.9014 19.8958 29.0237 19.8157C29.4839 19.5149 29.759 19.0091 29.759 18.4619V4.23907C29.759 4.20743 29.7539 4.17618 29.7454 4.14581L29.0704 1.74996C28.9014 1.14875 28.3444 0.728591 27.7161 0.728591H23.4409C23.1038 0.728591 22.7838 0.855575 22.5418 1.08553L21.6723 1.90524L20.9158 1.90016V1.85921V0.72645C20.9158 0.325691 20.5871 0 20.1838 0H17.9057C17.5025 0 17.1747 0.325691 17.1747 0.72645V1.85921C17.1747 1.88504 17.1779 1.9211 17.1858 1.96044V2.20511C17.1004 2.40294 17.0274 2.60587 16.9705 2.81307C16.6597 3.94161 16.5094 5.10723 16.5235 6.27712C16.537 7.4357 16.5548 9.00281 16.5706 10.6148L13.7626 12.8747V7.87058C13.7626 7.85379 13.7553 7.83934 13.753 7.82315C13.7546 7.80248 13.7626 7.78314 13.7626 7.76213C13.7626 5.0822 0.662532 5.03952 0.225914 7.63026C0.215545 7.66298 0.205177 7.69603 0.205177 7.73223V14.6176C0.171648 14.6332 0.138388 14.6504 0.110111 14.6773C-0.0291222 14.8089 -0.0342392 15.0274 0.0981938 15.1658C0.125865 15.1946 0.173129 15.2205 0.205177 15.2487V22.7847C0.171109 22.8003 0.137513 22.8177 0.108832 22.8448C-0.0308728 22.9756 -0.0367976 23.1941 0.0952314 23.3334C0.123644 23.3631 0.172119 23.3898 0.205177 23.4189V27.0173C0.205177 28.3445 3.71913 28.9495 6.9839 28.9495C7.79257 28.9495 8.56717 28.908 9.30515 28.8381C9.33921 28.9017 9.3819 28.9667 9.43906 29.0322C9.75664 29.3959 10.3667 29.4726 11.3037 29.2651C11.8369 29.1469 12.405 29.1419 12.9938 29.2499L15.7279 29.7494C15.8468 29.7705 15.9606 29.7865 16.0824 29.7975C16.5138 29.8355 18.0412 29.9637 19.6099 30C21.1638 29.9637 22.6896 29.8355 23.1209 29.7975C23.2423 29.7865 23.3561 29.7705 23.4776 29.7494L26.2091 29.2499C26.7975 29.1419 27.3656 29.1469 27.8988 29.2651C28.8328 29.4726 29.4475 29.3959 29.7634 29.033C30.0044 28.757 30.0188 28.487 29.9883 28.309ZM12.0866 16.4161C12.0667 16.4098 12.0462 16.4055 12.0249 16.4029C11.8333 16.3537 11.6942 16.1706 11.6942 15.9643V15.0374C11.6942 14.8982 11.7566 14.7686 11.8657 14.6817C11.9273 14.6332 12.0559 14.5573 12.2338 14.5961C12.3144 14.6139 12.4061 14.6251 12.488 14.6421C12.5044 14.6444 12.5196 14.6526 12.5361 14.6526C12.5373 14.6526 12.5384 14.6514 12.5396 14.6514C14.5296 15.0603 16.8968 15.2466 19.5938 15.1859C22.3194 15.2457 24.6956 15.0587 26.6899 14.6466C26.7166 14.6458 26.7416 14.6395 26.7674 14.6326C26.8321 14.619 26.9051 14.6103 26.969 14.5961C27.1431 14.5577 27.2756 14.6324 27.3375 14.6817C27.4462 14.7686 27.5082 14.8982 27.5082 15.0374V15.9643C27.5082 16.174 27.3725 16.3534 27.1779 16.4029C27.1579 16.4053 27.1388 16.4097 27.1199 16.4154C25.0681 16.907 22.5363 17.1207 19.6091 17.0608C19.6065 17.0608 19.6039 17.0608 19.6015 17.0608C19.5989 17.0608 19.5963 17.0608 19.5938 17.0608C16.6568 17.1248 14.1372 16.9071 12.0866 16.4161ZM18.3481 10.0741C19.1895 9.37841 20.1754 9.38852 20.9939 10.1061L25.8708 14.092C24.0678 14.4033 21.9767 14.5459 19.5936 14.4949C17.2301 14.5453 15.1492 14.4043 13.3515 14.0956L18.3481 10.0741ZM26.6615 13.8434L21.4447 9.58006C20.6863 8.91543 19.7597 8.72837 18.8945 9.00127V8.81775C18.8945 8.50049 19.1692 8.09552 19.384 8.09552H26.1725C26.4425 8.09552 26.6615 8.31363 26.6615 8.58151V13.8434ZM17.9057 0.691057H20.1838L20.2195 1.69429C20.0445 1.74748 19.6489 1.81619 19.0451 1.81619C18.4465 1.81619 18.053 1.74868 17.875 1.69596L17.9057 0.691057ZM17.2188 6.26869C17.2057 5.16336 17.3479 4.06184 17.6412 2.99532C17.6956 2.79828 17.7669 2.60553 17.8509 2.4186C17.8534 2.41305 17.8526 2.40662 17.8547 2.40094C18.1283 2.46349 18.5009 2.50718 19.0452 2.50718C19.6672 2.50718 20.069 2.45085 20.3462 2.37297C20.4478 2.50096 20.598 2.58907 20.774 2.59028L21.8073 2.59703C21.9075 2.60928 21.9848 2.56372 22.0493 2.5021L23.0215 1.58617C23.1344 1.47859 23.2839 1.41951 23.4409 1.41951H27.7161C28.0337 1.41951 28.3147 1.63174 28.4005 1.93588L29.0628 4.28657V18.4617C29.0628 18.7752 28.9057 19.0654 28.6713 19.2215C28.6176 19.2421 28.4307 19.275 27.9379 19.3178C27.9378 19.3177 27.9377 19.3175 27.9377 19.3174C27.6708 18.6186 27.5958 17.4641 27.5754 16.9739C27.9508 16.7835 28.2043 16.4055 28.2043 15.9642V15.0373C28.2043 14.6872 28.0464 14.3611 27.7722 14.1426C27.6476 14.0436 27.506 13.9766 27.3578 13.9366V8.58131C27.3578 7.93207 26.8263 7.40426 26.1725 7.40426H19.384C18.7166 7.40426 18.1991 8.16409 18.1991 8.81755V9.33439C18.1005 9.39882 18.0011 9.46111 17.9066 9.53938L17.2604 10.0594C17.2461 8.64541 17.2308 7.29547 17.2188 6.26869ZM12.4482 13.9325C12.4283 13.9282 12.4052 13.9256 12.3854 13.9212C12.0504 13.8474 11.701 13.9276 11.431 14.1428C11.1563 14.3613 10.9988 14.6874 10.9988 15.0375V15.5588C9.84498 15.7776 8.43945 15.9019 6.9839 15.9019C4.01927 15.9019 1.79047 15.4241 0.900602 14.9108V8.7275C2.06577 9.45803 4.53244 9.83744 6.9839 9.83744C9.43536 9.83744 11.902 9.4581 13.0672 8.7275V13.4344L12.4482 13.9325ZM6.98383 6.37754C10.9198 6.37754 13.0671 7.29219 13.0671 7.76213C13.0671 8.23214 10.9198 9.14632 6.98383 9.14632C3.04787 9.14632 0.900534 8.23214 0.900534 7.76213C0.900534 7.29219 3.04787 6.37754 6.98383 6.37754ZM6.98383 16.5929C8.448 16.5929 9.86558 16.4692 11.0468 16.2517C11.1285 16.569 11.3376 16.8272 11.6279 16.9742C11.6073 17.4643 11.5324 18.6177 11.265 19.3179C10.8846 20.3152 10.7181 21.197 10.7572 22.0112C10.7861 22.6173 10.8948 23.1866 11.0687 23.7135C9.90133 23.9417 8.47662 24.0717 6.98383 24.0717C4.01725 24.0717 1.78959 23.5942 0.900534 23.0807V15.6727C2.15 16.2371 4.39516 16.5929 6.98383 16.5929ZM0.900534 27.0172V23.8431C2.15 24.4072 4.39442 24.7635 6.98383 24.7635C8.52906 24.7635 10.0099 24.6267 11.2255 24.3878C11.3949 25.789 10.4921 27.0614 10.2397 27.2062C9.70352 27.5106 9.39301 27.8211 9.27088 28.1478C8.54576 28.2175 7.78207 28.2575 6.98377 28.2575C2.97018 28.2575 0.900534 27.3885 0.900534 27.0172ZM29.2377 28.5798C29.1638 28.6659 28.8267 28.7621 28.0498 28.5899C27.4249 28.4516 26.7643 28.4456 26.0833 28.5696L23.3535 29.0692C23.2541 29.0869 23.159 29.0995 23.0589 29.1088C22.6326 29.1468 21.1255 29.2725 19.6099 29.3096C18.079 29.2725 16.5701 29.1468 16.1451 29.1088C16.0446 29.0995 15.9494 29.0869 15.8518 29.0692L13.1194 28.5696C12.4393 28.4448 11.7779 28.4515 11.1529 28.5899C10.373 28.7629 10.0389 28.665 9.96462 28.5798C9.88861 28.492 9.89669 28.4448 9.90012 28.4246C9.91029 28.3647 9.98973 28.1445 10.5858 27.8053C11.1112 27.5052 12.2314 25.7981 11.8476 23.9983C11.8488 23.9683 11.8525 23.9386 11.8454 23.9079C11.8383 23.8764 11.8218 23.8504 11.807 23.8234C11.7854 23.7428 11.7794 23.6629 11.7512 23.5822C11.5801 23.0928 11.4794 22.5529 11.4518 21.9791C11.4179 21.2602 11.5694 20.4705 11.9154 19.563C12.192 18.8386 12.2842 17.7557 12.3152 17.1656C14.3512 17.6095 16.7876 17.8167 19.6015 17.7519C19.9394 17.7595 20.2714 17.7628 20.5991 17.7628C22.9976 17.7628 25.0976 17.5572 26.8882 17.1675C26.9195 17.7581 27.0114 18.8394 27.2874 19.563C27.6338 20.468 27.785 21.2586 27.751 21.9791C27.7238 22.5529 27.6236 23.092 27.4522 23.5823C26.772 25.528 28.0516 27.4822 28.6171 27.8053C29.2132 28.1445 29.293 28.3647 29.3032 28.4247C29.3064 28.4448 29.3141 28.4921 29.2377 28.5798Z" fill="#54596B"/>
<path d="M26.6905 19.4807C25.8771 19.085 24.9015 19.1285 24.0838 19.5997C23.3265 20.038 22.8406 20.7803 22.7246 21.6072L21.9347 22.0634C22.7518 21.2988 23.0599 20.1194 22.6327 19.0176C22.5589 18.8256 22.4519 18.6454 22.3432 18.4661C22.3007 18.3957 22.2583 18.3256 22.2183 18.2544C22.1716 18.1704 22.0578 18.1004 21.9636 18.0772C21.8813 18.0587 21.7318 18.1 21.6563 18.138L21.5646 18.1844C20.4557 18.7362 19.8833 19.6656 19.9097 20.8735C19.9233 21.4784 20.1466 22.0471 20.5737 22.5644C20.6416 22.6462 20.7409 22.6909 20.8428 22.6909C20.8457 22.6909 20.8485 22.6894 20.8512 22.6893L18.854 23.843C19.2324 23.4988 19.5266 23.0643 19.6719 22.5585C19.9284 21.6666 19.7255 20.7242 19.1145 19.9707C19.0207 19.8559 18.8636 19.8124 18.7248 19.8627C17.8409 20.1825 17.1739 20.9182 16.9408 21.8312C16.7136 22.7213 16.9357 23.6545 17.5352 24.327C17.6022 24.4021 17.6978 24.4434 17.7954 24.4434C17.8045 24.4434 17.8133 24.4396 17.8223 24.4388L15.8039 25.6047C16.1826 25.2605 16.477 24.8259 16.6227 24.3194C16.8792 23.4284 16.6758 22.4851 16.0653 21.7316C15.9715 21.6169 15.8136 21.5713 15.6756 21.6236C14.7917 21.9434 14.1247 22.6792 13.8916 23.5921C13.6644 24.4822 13.8865 25.4154 14.486 26.088C14.553 26.163 14.6486 26.2044 14.7462 26.2044C14.7555 26.2044 14.7645 26.2005 14.7738 26.1997L13.2582 27.0751C13.0922 27.1713 13.0357 27.3823 13.1326 27.5476C13.1971 27.6581 13.3139 27.7198 13.4336 27.7198C13.493 27.7198 13.5529 27.7046 13.6081 27.6725L15.1391 26.7882C15.0724 26.8778 15.0403 26.9889 15.077 27.0971C15.3653 27.9459 16.0688 28.599 16.9582 28.8445C17.2134 28.9153 17.4728 28.9499 17.7305 28.9499C18.3974 28.9499 19.0504 28.7179 19.5692 28.2808C19.683 28.1855 19.722 28.0285 19.6677 27.891C19.3119 26.9916 18.5885 26.3495 17.6834 26.1292C17.1729 26.0046 16.6528 26.0413 16.1686 26.1935L18.1884 25.0269C18.1215 25.1166 18.089 25.2277 18.1261 25.3361C18.4148 26.1849 19.1182 26.8388 20.0081 27.0844C20.2628 27.1544 20.5227 27.189 20.7799 27.189C21.4465 27.189 22.0994 26.957 22.6182 26.5199C22.732 26.4246 22.7711 26.2676 22.7168 26.1301C22.361 25.2306 21.6376 24.5886 20.7324 24.3683C20.2215 24.2447 19.6992 24.2817 19.213 24.435L21.2206 23.2754C21.1641 23.3628 21.135 23.4649 21.1706 23.5667C21.5518 24.6712 22.6633 25.4356 23.8308 25.4356C23.9276 25.4356 24.0236 25.4306 24.1203 25.4196C24.6391 25.3622 25.1248 25.1639 25.6487 24.7944C25.7132 24.7488 25.7693 24.6484 25.7914 24.5733C25.8177 24.4822 25.7735 24.3303 25.7251 24.2485L25.6725 24.1557C25.1919 23.1955 24.4184 22.6521 23.374 22.5415C23.0151 22.5019 22.6677 22.5361 22.3319 22.6335L23.0741 22.2049C23.4073 22.3316 23.7487 22.4091 24.0906 22.4091C24.6009 22.4091 25.1061 22.2682 25.5621 21.9889C26.3586 21.5012 26.8536 20.6845 26.8851 19.804C26.89 19.6673 26.8136 19.5411 26.6905 19.4807ZM20.6051 20.8582C20.5847 19.9499 20.966 19.2943 21.7692 18.8581C21.849 18.9906 21.9288 19.1235 21.984 19.2656C22.3882 20.3098 21.9467 21.4058 20.9549 21.9163C20.7282 21.5805 20.6136 21.232 20.6051 20.8582ZM17.615 22.0015C17.77 21.3948 18.1771 20.8919 18.7256 20.6144C19.072 21.1493 19.1736 21.7754 19.0037 22.3685C18.8377 22.9457 18.4353 23.4207 17.9054 23.6781C17.5688 23.1963 17.463 22.598 17.615 22.0015ZM14.5659 23.7624C14.7209 23.1557 15.128 22.6529 15.6765 22.3753C16.0225 22.9103 16.1244 23.5372 15.9542 24.1295C15.7882 24.7066 15.3857 25.1816 14.8563 25.439C14.5196 24.9572 14.4139 24.3589 14.5659 23.7624ZM17.5178 26.8008C18.1194 26.9468 18.6165 27.345 18.9124 27.9078C18.397 28.2445 17.7538 28.3449 17.1446 28.1787C16.5485 28.0141 16.0798 27.6268 15.8272 27.1004C16.3155 26.7696 16.9306 26.6565 17.5178 26.8008ZM20.5669 25.0399C21.1688 25.1859 21.6656 25.5841 21.9611 26.1469C21.4457 26.4844 20.8055 26.5873 20.1941 26.4177C19.5981 26.2532 19.1289 25.8659 18.8763 25.3386C19.3654 25.0095 19.9827 24.8956 20.5669 25.0399ZM23.3001 23.2283C24.0762 23.311 24.6357 23.6898 25.0093 24.386C24.6773 24.5859 24.3657 24.6973 24.0439 24.7327C23.1719 24.8247 22.3075 24.3404 21.9255 23.5734C22.3593 23.2907 22.8136 23.1785 23.3001 23.2283ZM25.1978 21.3999C24.6536 21.734 24.0142 21.8041 23.4114 21.6058C23.5209 21.0261 23.8911 20.5114 24.4337 20.1971C24.9754 19.884 25.6054 19.8174 26.1667 20.0114C26.0741 20.5705 25.7234 21.0784 25.1978 21.3999Z" fill="#54596B"/>
<path d="M22.3693 4.2762C22.5196 4.46982 22.7556 4.58543 23.0011 4.58543H26.5969C26.906 4.58543 27.1904 4.41878 27.3408 4.14922C27.5106 3.84293 27.5649 3.48646 27.4962 3.14598C27.4282 2.80597 27.2618 2.49674 27.0156 2.252C27.0147 2.2516 27.0147 2.2516 27.0147 2.2516C26.7991 2.03731 26.512 1.91956 26.2073 1.91956H23.8451C23.5556 1.91956 23.2754 2.03978 23.0767 2.24986L22.1528 3.22573C21.9626 3.42571 21.9473 3.72906 22.1154 3.94797L22.3693 4.2762ZM23.5827 2.72368C23.6506 2.65196 23.7466 2.61061 23.8451 2.61061H26.2073C26.327 2.61061 26.4391 2.65704 26.524 2.74094C26.6726 2.8886 26.7727 3.07547 26.8143 3.2822C26.8508 3.46318 26.8211 3.65305 26.732 3.81503C26.7048 3.86394 26.653 3.89431 26.597 3.89431H23.0011C22.9697 3.89431 22.94 3.87952 22.9213 3.8551L22.7371 3.61719L23.5827 2.72368Z" fill="#54596B"/>
<path d="M22.3319 6.12801H27.6065C27.7983 6.12801 27.9546 5.97319 27.9546 5.78251C27.9546 5.59184 27.7984 5.43702 27.6065 5.43702H22.3319C21.5898 5.43702 20.9861 4.83669 20.9861 4.09879V3.83298C20.9861 3.64231 20.8299 3.48749 20.6379 3.48749C20.4461 3.48749 20.2898 3.64231 20.2898 3.83298V4.09879C20.2899 5.21764 21.2061 6.12801 22.3319 6.12801Z" fill="#54596B"/>
</svg>
