<svg width="21" height="19" viewBox="0 0 21 19" fill="none" xmlns="http://www.w3.org/2000/svg">
<path d="M19.7866 3.8806H4.15285L3.56725 0.345501C3.53171 0.1305 3.33811 -0.0176792 3.11847 0.0017012L0.372512 0.275247C0.145196 0.297858 -0.0205465 0.500342 0.00206395 0.727658C0.0246744 0.95457 0.224131 1.1195 0.454475 1.09811L2.81484 0.862917L5.07611 14.5132C4.42339 14.7175 3.94496 15.3233 3.94496 16.0458C3.94496 16.9327 4.66466 17.6542 5.54909 17.6542H6.00067C6.18809 18.412 6.8689 18.9777 7.68396 18.9777C8.49884 18.9777 9.17963 18.412 9.36705 17.6542H13.9567C14.1441 18.412 14.8249 18.9777 15.64 18.9777C16.4549 18.9777 17.1357 18.412 17.3231 17.6542H18.2337C18.4621 17.6542 18.6472 17.4691 18.6472 17.2407C18.6472 17.0124 18.4621 16.8273 18.2337 16.8273H17.3243C17.1382 16.0674 16.4563 15.4999 15.64 15.4999C14.8236 15.4999 14.1416 16.0674 13.9556 16.8273H9.36821C9.18213 16.0674 8.50021 15.4999 7.68396 15.4999C6.86754 15.4999 6.18559 16.0674 5.99951 16.8273H5.54909C5.1205 16.8273 4.77186 16.4766 4.77186 16.0458C4.77186 15.6146 5.1175 15.264 5.54341 15.2609C5.54581 15.2609 5.5479 15.2621 5.5503 15.2621C5.55749 15.2621 5.56491 15.2607 5.57218 15.2603H18.2337C18.4621 15.2603 18.6472 15.0752 18.6472 14.8469C18.6472 14.6185 18.4621 14.4334 18.2337 14.4334H5.90092L5.73002 13.4018H18.0981C18.2961 13.4018 18.4663 13.2615 18.5039 13.0671L20.1924 4.37278C20.216 4.25166 20.1841 4.12629 20.1056 4.031C20.027 3.93572 19.9102 3.8806 19.7866 3.8806ZM15.64 16.3268C16.1422 16.3268 16.5505 16.735 16.5517 17.2368C16.5517 17.2382 16.5509 17.2394 16.5509 17.2407C16.5509 17.2417 16.5514 17.2425 16.5514 17.2435C16.5489 17.7442 16.1413 18.1508 15.64 18.1508C15.1371 18.1508 14.7279 17.7418 14.7279 17.2389C14.7279 16.736 15.1371 16.3268 15.64 16.3268ZM7.68396 16.3268C8.18684 16.3268 8.59585 16.736 8.59585 17.2389C8.59585 17.7418 8.18684 18.1508 7.68396 18.1508C7.18264 18.1508 6.77485 17.7442 6.77233 17.2435C6.77233 17.2425 6.77288 17.2417 6.77288 17.2407C6.77288 17.2394 6.7721 17.2382 6.77207 17.2368C6.77323 16.735 7.18181 16.3268 7.68396 16.3268ZM17.7571 12.5749H5.62116L4.34811 4.7075H19.2851L17.7571 12.5749Z" fill="black"/>
<path d="M11.9605 4.94092C11.0234 4.94092 10.135 5.30211 9.47123 5.96592C8.80742 6.62974 8.44623 7.51808 8.44623 8.45523C8.44623 9.39237 8.80742 10.2807 9.47123 10.9445C10.135 11.6083 11.0234 11.9695 11.9605 11.9695C12.8977 11.9695 13.786 11.6083 14.4498 10.9445C15.1137 10.2807 15.4748 9.39237 15.4748 8.45523C15.4748 7.51808 15.1137 6.62974 14.4498 5.96592C13.786 5.30211 12.8977 4.94092 11.9605 4.94092ZM14.3034 10.7981C13.6786 11.4229 12.8391 11.7743 11.9605 11.7743C11.082 11.7743 10.2424 11.4326 9.61766 10.7981C8.9929 10.1636 8.64147 9.3338 8.64147 8.45523C8.64147 7.57665 8.98314 6.73712 9.61766 6.11235C10.2522 5.48759 11.082 5.13616 11.9605 5.13616C12.8391 5.13616 13.6786 5.47783 14.3034 6.11235C14.9282 6.74688 15.2796 7.57665 15.2796 8.45523C15.2796 9.3338 14.9379 10.1733 14.3034 10.7981Z" fill="black"/>
<path d="M10.8379 7.225H11.7165C11.9801 7.225 12.2046 7.42024 12.2632 7.69357H10.8379V7.95715H12.2632C12.2046 8.23048 11.9801 8.42572 11.7165 8.42572H10.7208L12.3901 10.1926L12.5755 9.9974L11.326 8.68929H11.7262C12.1265 8.67953 12.4584 8.36715 12.517 7.95715H13.0832V7.69357H12.517C12.4877 7.51786 12.4193 7.3519 12.3022 7.225H13.0832V6.96143H10.8379V7.225Z" fill="black"/>
</svg>
