<svg width="35" height="35" viewBox="0 0 35 35" fill="none" xmlns="http://www.w3.org/2000/svg">
<path d="M29.8554 7.43843H23.8207V4.0451C23.8207 1.8147 22.0067 0 19.7752 0H14.5544C12.324 0 10.5093 1.81434 10.5093 4.0451V7.43843H4.47464C3.67859 7.43843 3.029 8.07563 3.0086 8.86658L0.00400755 33.4647L0 33.4993V33.5336C0 34.3424 0.657971 35 1.46641 35H32.864C33.6724 35 34.3304 34.342 34.3304 33.5336V33.4993L31.321 8.86658C31.301 8.07563 30.651 7.43843 29.8554 7.43843ZM11.6373 4.04474C11.6373 2.43624 12.9459 1.12759 14.5544 1.12759H19.7752C21.3837 1.12759 22.6924 2.43624 22.6924 4.04474V7.43807H11.6373V4.04474ZM32.864 33.8721H1.46641C1.28862 33.8721 1.14216 33.7347 1.12868 33.5606L4.13181 8.97406L4.13618 8.93981V8.90557C4.13618 8.71867 4.28774 8.56711 4.47464 8.56711H10.5093V10.8423H11.6373V8.56674H22.6924V10.8416H23.8207V8.56674H29.8554C30.0419 8.56674 30.1938 8.7183 30.1938 8.9052V8.93945L33.2013 33.5602C33.1878 33.7347 33.0418 33.8721 32.864 33.8721Z" fill="#54596B"/>
<path d="M25.3788 25.073C25.9512 25.073 26.4153 24.609 26.4153 24.0365C26.4153 23.4641 25.9512 23 25.3788 23C24.8063 23 24.3423 23.4641 24.3423 24.0365C24.3423 24.609 24.8063 25.073 25.3788 25.073Z" fill="#00DCDC"/>
<path d="M24.5633 25.6313C25.1 25.3099 25.716 25.3107 26.2545 25.632C27.161 26.1741 27.7206 27.4926 27.8299 29.2599H27.0094C26.9682 28.6359 26.8648 28.0741 26.7015 27.6048C26.6658 27.4992 26.625 27.3979 26.5835 27.3032V29.2599H24.223V27.3374C24.1877 27.4208 24.1545 27.5083 24.1236 27.5972C23.9633 28.0686 23.8598 28.6318 23.8201 29.2599H23C23.1067 27.49 23.6627 26.1705 24.5633 25.6313Z" fill="#54596B"/>
<path d="M17.1288 25.3027C17.7012 25.3027 18.1653 24.8387 18.1653 24.2662C18.1653 23.6938 17.7012 23.2297 17.1288 23.2297C16.5563 23.2297 16.0923 23.6938 16.0923 24.2662C16.0923 24.8387 16.5563 25.3027 17.1288 25.3027Z" fill="#00DCDC"/>
<path d="M16.3134 25.8625C16.85 25.5412 17.4661 25.5419 18.0049 25.8633C18.911 26.4054 19.4706 27.7239 19.5796 29.4912H18.7591C18.7176 28.8671 18.6145 28.3053 18.452 27.8361C18.4152 27.7304 18.3758 27.6291 18.3336 27.5344V29.4912H15.9738V27.5687C15.9381 27.6521 15.9053 27.7395 15.8744 27.8284C15.7137 28.2999 15.611 28.8631 15.5713 29.4912H14.7508C14.8572 27.7213 15.4131 26.4017 16.3134 25.8625Z" fill="#54596B"/>
<path d="M9.3783 25.073C9.95075 25.073 10.4148 24.609 10.4148 24.0365C10.4148 23.4641 9.95075 23 9.3783 23C8.80586 23 8.3418 23.4641 8.3418 24.0365C8.3418 24.609 8.80586 25.073 9.3783 25.073Z" fill="#00DCDC"/>
<path d="M8.56368 25.6313C9.10034 25.3099 9.71641 25.3107 10.2545 25.632C11.1602 26.1741 11.7206 27.4926 11.8291 29.2599H11.0094C10.9679 28.6359 10.8637 28.0741 10.7015 27.6048C10.6647 27.4992 10.625 27.3979 10.5831 27.3032V29.2599H8.22304V27.3374C8.18734 27.4208 8.15455 27.5083 8.12358 27.5972C7.96291 28.0686 7.86017 28.6318 7.8201 29.2599H7C7.10638 27.49 7.66307 26.1705 8.56368 25.6313Z" fill="#54596B"/>
<path d="M26.3788 15.073C26.9512 15.073 27.4153 14.609 27.4153 14.0365C27.4153 13.4641 26.9512 13 26.3788 13C25.8063 13 25.3423 13.4641 25.3423 14.0365C25.3423 14.609 25.8063 15.073 26.3788 15.073Z" fill="#00DCDC"/>
<path d="M25.5633 15.6345C26.1 15.3142 26.716 15.3146 27.2545 15.6352C28.161 16.1773 28.7206 17.4966 28.8299 19.2632H28.0094C27.9682 18.6387 27.8648 18.078 27.7015 17.6084C27.6662 17.5024 27.6254 17.4018 27.5835 17.306V19.2639H25.223V17.3417C25.1877 17.4248 25.1545 17.5119 25.1239 17.6018C24.9633 18.0729 24.8605 18.6362 24.8205 19.2639H24C24.1067 17.4936 24.6627 16.1744 25.5633 15.6345Z" fill="#54596B"/>
<path d="M17.1288 17.4998C17.7012 17.4998 18.1653 17.0358 18.1653 16.4633C18.1653 15.8909 17.7012 15.4268 17.1288 15.4268C16.5563 15.4268 16.0923 15.8909 16.0923 16.4633C16.0923 17.0358 16.5563 17.4998 17.1288 17.4998Z" fill="#00DCDC"/>
<path d="M16.3134 18.0614C16.85 17.7411 17.4661 17.7415 18.0049 18.0621C18.911 18.6042 19.4706 19.9234 19.5796 21.69H18.7591C18.7176 21.0656 18.6145 20.5049 18.452 20.0346C18.4152 19.9293 18.3758 19.828 18.3336 19.7329V21.69H15.9738V19.7686C15.9381 19.8517 15.9053 19.9387 15.8744 20.0287C15.7137 20.4998 15.611 21.063 15.5713 21.6908H14.7508C14.8572 19.9205 15.4131 18.6013 16.3134 18.0614Z" fill="#54596B"/>
<path d="M7.3783 15.073C7.95075 15.073 8.41481 14.609 8.41481 14.0365C8.41481 13.4641 7.95075 13 7.3783 13C6.80586 13 6.3418 13.4641 6.3418 14.0365C6.3418 14.609 6.80586 15.073 7.3783 15.073Z" fill="#00DCDC"/>
<path d="M6.56368 15.6345C7.10034 15.3142 7.71641 15.3146 8.25452 15.6352C9.16023 16.1773 9.72056 17.4966 9.82913 19.2632H9.0094C8.9675 18.6387 8.86367 18.078 8.70118 17.6084C8.66475 17.5024 8.62504 17.4018 8.58314 17.306V19.2639H6.22304V17.3417C6.18734 17.4248 6.15455 17.5119 6.12358 17.6018C5.96291 18.0729 5.86017 18.6362 5.8201 19.2639H5C5.10638 17.4936 5.66307 16.1744 6.56368 15.6345Z" fill="#54596B"/>
</svg>
