<svg width="21" height="15" viewBox="0 0 21 15" fill="none" xmlns="http://www.w3.org/2000/svg">
<path d="M0.612121 10.6101C0.612121 11.0182 0 11.0182 0 10.6101C0.0680135 8.84175 1.56431 7.48148 3.26465 7.48148H4.69293C6.46128 7.48148 7.88956 8.84175 7.95758 10.6101C7.95758 11.0182 7.34545 11.0182 7.34545 10.6101C7.27744 9.18182 6.12121 8.0936 4.69293 8.0936H3.26465C1.90438 8.0936 0.748148 9.18182 0.680135 10.6101H0.612121ZM6.80135 7.14141C6.80135 7.54949 6.18923 7.54949 6.18923 7.14141C6.25724 5.37306 7.68552 4.01279 9.38586 4.01279H10.8141C12.5825 4.01279 14.0108 5.37306 14.0108 7.14141C14.0788 7.54949 13.4667 7.54949 13.3987 7.14141C13.3987 5.71313 12.2424 4.62492 10.8141 4.62492H9.38586C7.95758 4.62492 6.80135 5.71313 6.80135 7.14141ZM6.73333 14.2828C6.73333 14.6909 6.12121 14.6909 6.12121 14.2828C6.12121 12.5825 7.54949 11.1542 9.31785 11.1542H10.7461C12.4465 11.1542 13.9428 12.5825 13.9428 14.2828C13.9428 14.6909 13.3306 14.6909 13.3306 14.2828C13.3306 12.9226 12.1744 11.7663 10.7461 11.7663H9.31785C7.88956 11.7663 6.73333 12.9226 6.73333 14.2828ZM12.9226 10.6101C12.9226 11.0182 12.3104 11.0182 12.3104 10.6101C12.3104 8.84175 13.7387 7.48148 15.5751 7.48148H17.0034C18.7717 7.48148 20.2 8.84175 20.2 10.6101C20.2 11.0182 19.5879 11.0182 19.5879 10.6101C19.5879 9.18182 18.4317 8.0936 17.0034 8.0936H15.5751C14.0788 8.0936 12.9226 9.18182 12.9226 10.6101ZM4.01279 3.46869C5.033 3.46869 5.91717 4.35286 5.91717 5.44108C5.91717 6.46128 5.033 7.34545 4.01279 7.34545C2.92458 7.34545 2.10842 6.46128 2.10842 5.44108C2.10842 4.35286 2.92458 3.46869 4.01279 3.46869ZM4.01279 4.08081C3.26465 4.08081 2.72054 4.69293 2.72054 5.44108C2.72054 6.12121 3.26465 6.73333 4.01279 6.73333C4.69293 6.73333 5.30505 6.12121 5.30505 5.44108C5.30505 4.69293 4.69293 4.08081 4.01279 4.08081ZM10.134 0C11.1542 0 12.0384 0.816162 12.0384 1.97239C12.0384 2.99259 11.1542 3.87677 10.134 3.87677C9.04579 3.87677 8.16162 2.99259 8.16162 1.97239C8.16162 0.816162 9.04579 0 10.134 0ZM10.134 0.612121C9.38586 0.612121 8.77374 1.15623 8.77374 1.97239C8.77374 2.65253 9.38586 3.26465 10.134 3.26465C10.8141 3.26465 11.4263 2.65253 11.4263 1.97239C11.4263 1.15623 10.8141 0.612121 10.134 0.612121ZM9.99798 7.20943C11.0862 7.20943 11.9704 8.0936 11.9704 9.1138C11.9704 10.202 11.0862 11.0182 9.99798 11.0182C8.97778 11.0182 8.0936 10.202 8.0936 9.1138C8.0936 8.0936 8.97778 7.20943 9.99798 7.20943ZM9.99798 7.82155C9.31785 7.82155 8.70572 8.43367 8.70572 9.1138C8.70572 9.86195 9.31785 10.4061 9.99798 10.4061C10.7461 10.4061 11.3582 9.86195 11.3582 9.1138C11.3582 8.43367 10.7461 7.82155 9.99798 7.82155ZM16.2552 3.46869C17.3434 3.46869 18.2276 4.35286 18.2276 5.44108C18.2276 6.46128 17.3434 7.34545 16.2552 7.34545C15.235 7.34545 14.2828 6.46128 14.2828 5.44108C14.2828 4.35286 15.235 3.46869 16.2552 3.46869ZM16.2552 4.08081C15.5751 4.08081 14.963 4.69293 14.963 5.44108C14.963 6.12121 15.5751 6.73333 16.2552 6.73333C17.0034 6.73333 17.6155 6.12121 17.6155 5.44108C17.6155 4.69293 17.0034 4.08081 16.2552 4.08081Z" fill="black"/>
</svg>
