<svg width="30" height="30" viewBox="0 0 30 30" fill="none" xmlns="http://www.w3.org/2000/svg">
<rect x="7" y="5" width="1" height="5" fill="#00DCDC"/>
<path d="M5 7C7.13561 6.1766 8.20234 6.30273 10 7V8L7.5 8.5L5 8V7Z" fill="#00DCDC"/>
<path d="M27.7846 3.52884C27.0498 2.35497 26.003 1.4087 24.7611 0.795902C23.5192 0.1831 22.1314 -0.0720648 20.7528 0.0589561C19.3742 0.189977 18.0592 0.702015 16.955 1.53778C15.8508 2.37355 15.0009 3.50008 14.5004 4.79134C13.9287 3.32361 12.9106 2.07242 11.5898 1.21426C10.2689 0.356098 8.71203 -0.0657166 7.13865 0.00831477C5.18749 0.124743 3.35645 0.989372 2.02683 2.42214C0.697207 3.85492 -0.0284917 5.74538 0.000856685 7.69986C0.00535506 9.42396 0.406522 11.1239 1.1733 12.6681C1.94009 14.2123 3.05192 15.5593 4.42273 16.6049L5.5547 17.4639C3.98139 20.0403 3.10731 22.9825 3.01877 26H3.00077C2.73556 26 2.48122 26.1053 2.29368 26.2929C2.10615 26.4804 2.0008 26.7348 2.0008 27V29C2.0008 29.2652 2.10615 29.5196 2.29368 29.7071C2.48122 29.8946 2.73556 30 3.00077 30H20.5003C20.7655 30 21.0198 29.8946 21.2074 29.7071C21.3949 29.5196 21.5002 29.2652 21.5002 29V27C21.5 26.8382 21.4604 26.6788 21.385 26.5356C21.3096 26.3925 21.2005 26.2697 21.0673 26.178L21.4957 25.772C24.1768 23.2228 26.3128 20.1562 27.7745 16.7577C29.2363 13.3592 29.9934 9.6994 30 5.99985C29.9982 5.3879 29.7714 4.79797 29.3629 4.34234C28.9544 3.8867 28.3927 3.59717 27.7846 3.52884V3.52884ZM1.00083 7.69986C0.971973 6.00262 1.59883 4.35964 2.7509 3.113C3.90297 1.86636 5.49146 1.11212 7.18565 1.00732C8.06472 0.964668 8.94329 1.10099 9.7681 1.40803C10.5929 1.71506 11.3468 2.18641 11.984 2.7935C12.6212 3.40058 13.1285 4.13076 13.4751 4.93976C13.8218 5.74876 14.0005 6.61973 14.0005 7.49986C14.0005 7.63247 14.0531 7.75965 14.1469 7.85342C14.2407 7.94719 14.3678 7.99986 14.5004 7.99986C14.633 7.99986 14.7602 7.94719 14.854 7.85342C14.9478 7.75965 15.0004 7.63247 15.0004 7.49986C14.9879 6.13374 15.4099 4.799 16.2054 3.68835C17.0009 2.57771 18.1288 1.74864 19.4263 1.32086C20.7237 0.893076 22.1235 0.888722 23.4236 1.30842C24.7236 1.72813 25.8567 2.55016 26.6591 3.65584C26.1749 3.82819 25.7557 4.14583 25.4588 4.56537C25.1619 4.9849 25.0017 5.48587 25.0001 5.99985C25.0062 7.94861 24.5641 9.87267 23.708 11.6233C22.8519 13.3739 21.6047 14.9042 20.0628 16.0959L18.7683 17.1029L20.3128 14.8714C20.7099 14.294 20.8772 13.5892 20.782 12.895C20.6868 12.2007 20.3359 11.567 19.7979 11.1179C19.26 10.6687 18.5739 10.4366 17.8738 10.4668C17.1737 10.4971 16.5101 10.7876 16.0129 11.2814L9.68258 17.6109C9.35751 17.937 9.05025 18.2803 8.76211 18.6394L5.02721 15.8059C3.77926 14.8542 2.76701 13.628 2.06882 12.2224C1.37062 10.8168 1.0052 9.26935 1.00083 7.69986V7.69986ZM6.35618 18.0694L8.16662 19.4429C6.84565 21.3822 6.09903 23.6551 6.01269 26H4.01874C4.10589 23.1999 4.91075 20.4691 6.35618 18.0694V18.0694ZM3.00077 27H6.00069V29H3.00077V27ZM7.00066 29V27H20.5003V29H7.00066ZM20.8083 25.0465L19.8003 26H7.02516C7.13763 23.1066 8.33938 20.3626 10.3896 18.3179L16.7189 11.9889C17.064 11.6591 17.523 11.4751 18.0003 11.4751C18.4777 11.4751 18.9367 11.6591 19.2818 11.9889C19.5818 12.2886 19.767 12.6842 19.8051 13.1066C19.8432 13.529 19.7318 13.9513 19.4903 14.2999L16.0904 19.2134C16.0226 19.3117 15.9923 19.4309 16.0047 19.5496C16.0172 19.6683 16.0717 19.7786 16.1584 19.8606C16.2451 19.9426 16.3583 19.9909 16.4775 19.9967C16.5967 20.0026 16.7141 19.9656 16.8084 19.8924L20.6773 16.8834C22.3395 15.5989 23.6841 13.9492 24.6071 12.062C25.5301 10.1748 26.0067 8.10066 26.0001 5.99985C26.0001 5.60202 26.1581 5.22049 26.4394 4.93918C26.7207 4.65788 27.1023 4.49984 27.5001 4.49984C27.8979 4.49984 28.2794 4.65788 28.5607 4.93918C28.842 5.22049 29 5.60202 29 5.99985C28.9935 9.56359 28.2642 13.089 26.8561 16.3628C25.4481 19.6365 23.3907 22.5907 20.8083 25.0465Z" fill="#54596B"/>
<path d="M9.00059 10.5008V9.00082H10.5005C10.6332 9.00082 10.7603 8.94815 10.8541 8.85438C10.9479 8.76061 11.0005 8.63343 11.0005 8.50082V6.50081C11.0005 6.3682 10.9479 6.24102 10.8541 6.14725C10.7603 6.05348 10.6332 6.00081 10.5005 6.00081H9.00059V4.5008C9.00059 4.36819 8.94791 4.24101 8.85415 4.14724C8.76038 4.05347 8.63321 4.00079 8.5006 4.00079H6.50066C6.36806 4.00079 6.24088 4.05347 6.14712 4.14724C6.05335 4.24101 6.00068 4.36819 6.00068 4.5008V6.00081H4.50072C4.36811 6.00081 4.24094 6.05348 4.14717 6.14725C4.05341 6.24102 4.00073 6.3682 4.00073 6.50081V8.50082C4.00073 8.63343 4.05341 8.76061 4.14717 8.85438C4.24094 8.94815 4.36811 9.00082 4.50072 9.00082H6.00068V10.5008C6.00068 10.6334 6.05335 10.7606 6.14712 10.8544C6.24088 10.9482 6.36806 11.0008 6.50066 11.0008H8.5006C8.63321 11.0008 8.76038 10.9482 8.85415 10.8544C8.94791 10.7606 9.00059 10.6334 9.00059 10.5008ZM8.00062 8.50082V10.0008H7.00065V8.50082C7.00065 8.36821 6.94797 8.24103 6.8542 8.14726C6.76044 8.0535 6.63327 8.00082 6.50066 8.00082H5.0007V7.00081H6.50066C6.63327 7.00081 6.76044 6.94813 6.8542 6.85436C6.94797 6.7606 7.00065 6.63342 7.00065 6.50081V5.0008H8.00062V6.50081C8.00062 6.63342 8.05329 6.7606 8.14706 6.85436C8.24083 6.94813 8.368 7.00081 8.5006 7.00081H10.0006V8.00082H8.5006C8.368 8.00082 8.24083 8.0535 8.14706 8.14726C8.05329 8.24103 8.00062 8.36821 8.00062 8.50082Z" fill="#54596B"/>
<path d="M13.0005 7.49924C13.0005 6.41144 12.678 5.34806 12.0737 4.44359C11.4693 3.53911 10.6104 2.83416 9.6054 2.41787C8.60043 2.00159 7.4946 1.89267 6.42773 2.10489C5.36087 2.31711 4.38089 2.84094 3.61172 3.61013C2.84256 4.37933 2.31875 5.35934 2.10653 6.42624C1.89432 7.49314 2.00324 8.59902 2.41951 9.60402C2.83578 10.609 3.54071 11.468 4.44515 12.0724C5.3496 12.6767 6.41293 12.9993 7.5007 12.9993C8.95882 12.9976 10.3567 12.4175 11.3878 11.3865C12.4188 10.3554 12.9988 8.95741 13.0005 7.49924ZM3.00083 7.49924C3.00083 6.60922 3.26474 5.73919 3.75919 4.99916C4.25365 4.25914 4.95643 3.68236 5.77867 3.34176C6.60092 3.00116 7.50569 2.91205 8.37858 3.08568C9.25147 3.25932 10.0533 3.6879 10.6826 4.31724C11.3119 4.94658 11.7405 5.74841 11.9141 6.62133C12.0877 7.49425 11.9986 8.39906 11.658 9.22133C11.3175 10.0436 10.7407 10.7464 10.0007 11.2409C9.26069 11.7353 8.39069 11.9993 7.5007 11.9993C6.30767 11.9979 5.16387 11.5234 4.32027 10.6798C3.47667 9.83615 3.00215 8.69232 3.00083 7.49924V7.49924Z" fill="#54596B"/>
<path d="M19.5003 27.4992H18.5004V28.4992H19.5003V27.4992Z" fill="#54596B"/>
</svg>
