<svg width="30" height="30" viewBox="0 0 30 30" fill="none" xmlns="http://www.w3.org/2000/svg">
<path d="M14 13H16V15H14L13.5 14L14 13Z" fill="#00DCDC"/>
<path d="M18 16.0043L19.7295 15L20.7339 16.7295C20.4896 18.115 20.1585 18.4464 19.0043 17.7339L18 16.0043Z" fill="#00DCDC"/>
<path d="M8.99995 17.7864L10.2136 15.1006L11.9999 16L10.7863 18.6858L8.99995 17.7864Z" fill="#00DCDC"/>
<path d="M19.7071 19.0319C19.8808 21.7521 17.9205 24.0914 15.3287 24.2569C12.7368 24.4224 10.4949 22.3514 10.3212 19.6312C10.1475 16.911 12.1078 14.5716 14.6997 14.4061C17.2915 14.2406 19.5334 16.3117 19.7071 19.0319ZM13.0156 19.4592C13.0895 20.6176 14.0443 21.4996 15.1481 21.4291C16.2519 21.3587 17.0868 20.3624 17.0128 19.2039C16.9388 18.0455 15.984 17.1635 14.8802 17.2339C13.7764 17.3044 12.9416 18.3007 13.0156 19.4592Z" fill="#00DCDC"/>
<path d="M18.8581 20.8255L20.6646 20.8255L20.6646 21.6837L19.8064 23.4902L17.9999 22.632L18.8581 20.8255Z" fill="#00DCDC"/>
<rect x="14" y="24" width="3" height="2" fill="#00DCDC"/>
<rect x="9" y="21.111" width="2" height="3.02009" transform="rotate(-33.7437 9 21.111)" fill="#00DCDC"/>
<path d="M29.3333 28.6364H25.6667V14.5568L25.8333 14.6591C26.6 15.1705 27.5667 15.2386 28.3667 14.7955C29.1667 14.3523 29.6667 13.5 29.6667 12.5795C29.6667 11.7273 29.2667 10.9432 28.5667 10.4659L15.3667 1.46591C15.1333 1.32955 14.8667 1.32955 14.6333 1.46591L9.66667 4.875V2.72727C9.66667 1.22727 8.46667 0 7 0C5.53333 0 4.33333 1.22727 4.33333 2.72727V8.48864L1.43333 10.4659C0.733333 10.9432 0.333333 11.7273 0.333333 12.5795C0.333333 13.5 0.833333 14.3523 1.63333 14.7955C2 15 2.4 15.1023 2.8 15.1023C3.26667 15.1023 3.76667 14.9659 4.16667 14.6932L4.33333 14.5909V28.6364H0.666667C0.3 28.6364 0 28.9432 0 29.3182C0 29.6932 0.3 30 0.666667 30H29.3333C29.7 30 30 29.6932 30 29.3182C30 28.9432 29.7 28.6364 29.3333 28.6364ZM7 1.36364C7.73333 1.36364 8.33333 1.97727 8.33333 2.72727V5.76136L5.66667 7.56818V2.72727C5.66667 1.97727 6.26667 1.36364 7 1.36364ZM3.43333 13.5341C3.06667 13.7727 2.63333 13.8068 2.26667 13.6023C1.9 13.3977 1.66667 13.0227 1.66667 12.5795C1.66667 12.2045 1.86667 11.8295 2.16667 11.625L5.36667 9.44318L9.36667 6.71591L15 2.86364L27.8333 11.625C28.1667 11.8295 28.3333 12.2045 28.3333 12.5795C28.3333 13.0227 28.1 13.3977 27.7333 13.6023C27.3667 13.8068 26.9333 13.7727 26.5667 13.5341L25.3667 12.7159L15.3667 5.89773C15.1333 5.76136 14.8667 5.76136 14.6333 5.89773L4.63333 12.7159L3.43333 13.5341ZM5.66667 13.6705L15 7.29545L24.3333 13.6705V28.6364H5.66667V13.6705ZM15 17.0455C13.7 17.0455 12.6667 18.1023 12.6667 19.4318C12.6667 20.7614 13.7 21.8182 15 21.8182C16.3 21.8182 17.3333 20.7614 17.3333 19.4318C17.3333 18.1023 16.3 17.0455 15 17.0455ZM15 20.4545C14.4333 20.4545 14 20.0114 14 19.4318C14 18.8523 14.4333 18.4091 15 18.4091C15.5667 18.4091 16 18.8523 16 19.4318C16 20.0114 15.5667 20.4545 15 20.4545ZM21.6667 20.5909L20.6667 19.9773C20.6667 19.8068 20.6667 19.6023 20.6667 19.4318C20.6667 19.2614 20.6667 19.0568 20.6333 18.8523L21.6333 18.2386C21.9667 18.0341 22.0667 17.625 21.8667 17.3182L20.2 14.3523C20.1 14.1818 19.9667 14.0795 19.8 14.0455C19.6333 14.0114 19.4333 14.0114 19.3 14.1136L18.3 14.7273C18 14.4886 17.6667 14.3182 17.3333 14.1477V12.9545C17.3333 12.5795 17.0333 12.2727 16.6667 12.2727H13.3333C12.9667 12.2727 12.6667 12.5795 12.6667 12.9545V14.1477C12.3333 14.3182 12 14.4886 11.7 14.7273L10.7 14.1136C10.5333 14.0114 10.3667 14.0114 10.2 14.0455C10.0333 14.0795 9.9 14.2159 9.8 14.3523L8.13333 17.3182C8.03333 17.4886 8.03333 17.6591 8.06667 17.8295C8.1 18 8.23333 18.1364 8.36667 18.2386L9.36667 18.8523C9.33333 19.0568 9.33333 19.2273 9.33333 19.4318C9.33333 19.6364 9.33333 19.8068 9.36667 20.0114L8.36667 20.625C8.2 20.7273 8.1 20.8636 8.06667 21.0341C8.03333 21.2045 8.03333 21.4091 8.13333 21.5455L9.8 24.5114C9.9 24.6818 10.0333 24.7841 10.2 24.8182C10.3667 24.8523 10.5667 24.8523 10.7 24.75L11.7 24.1364C12 24.375 12.3333 24.5455 12.6667 24.7159V25.9091C12.6667 26.2841 12.9667 26.5909 13.3333 26.5909H16.6667C17.0333 26.5909 17.3333 26.2841 17.3333 25.9091V24.7159C17.6667 24.5455 18 24.375 18.3 24.1364L19.3 24.75C19.4667 24.8523 19.6333 24.8523 19.8 24.8182C19.9667 24.7841 20.1 24.6477 20.2 24.5114L21.8667 21.5455C22.0667 21.2045 21.9667 20.7955 21.6667 20.5909ZM19.2667 18.6136C19.3333 18.8864 19.3333 19.1591 19.3333 19.4318C19.3333 19.7045 19.3 19.9432 19.2667 20.25C19.2 20.5227 19.3333 20.8295 19.6 20.9659L20.4333 21.4432L19.4333 23.2159L18.6 22.7386C18.3667 22.6023 18.0333 22.6364 17.8333 22.8068C17.4333 23.1477 16.9667 23.4205 16.4667 23.625C16.2 23.7273 16.0333 23.9659 16.0333 24.2727V25.2273H14.0333V24.2386C14.0333 23.9659 13.8667 23.6932 13.6 23.5909C13.1 23.4205 12.6333 23.1477 12.2333 22.7727C12.0333 22.5682 11.7 22.5682 11.4667 22.7045L10.6333 23.1818L9.63333 21.4091L10.4667 20.9318C10.7 20.7955 10.8333 20.4886 10.8 20.2159C10.7 19.9432 10.6667 19.7045 10.6667 19.4318C10.6667 19.1591 10.7 18.9205 10.7333 18.6136C10.8 18.3409 10.6667 18.0341 10.4 17.8977L9.56667 17.4205L10.5667 15.6477L11.4 16.125C11.6333 16.2614 11.9667 16.2273 12.1667 16.0568C12.5667 15.7159 13.0333 15.4432 13.5333 15.2386C13.8 15.1364 13.9667 14.8977 13.9667 14.5909V13.6364H15.9667V14.625C15.9667 14.8977 16.1333 15.1705 16.4 15.2727C16.9 15.4432 17.3667 15.7159 17.7667 16.0909C17.9667 16.2955 18.3 16.2955 18.5333 16.1591L19.3667 15.6818L20.3667 17.4545L19.5333 17.9318C19.3333 18.0682 19.2 18.3409 19.2667 18.6136Z" fill="#54596B"/>
</svg>
