<svg width="227" height="273" viewBox="0 0 227 273" fill="none" xmlns="http://www.w3.org/2000/svg">
<path d="M92.3533 24.6519C76.6318 24.6519 63.9984 37.2853 63.9984 53.0069V67.6054H120.708V53.0069C120.708 37.2853 108.075 24.6519 92.3533 24.6519Z" stroke="#54596B" stroke-width="8.90071"/>
<path d="M221.776 166.146C210.266 143.406 182.753 134.423 160.294 145.933C137.554 157.443 128.851 185.798 140.08 207.415C144.853 216.961 164.224 250.65 174.612 268.336C177.419 273.39 184.438 273.109 187.245 268.336C197.352 250.65 216.723 216.961 221.776 207.415C228.795 194.501 228.514 179.341 221.776 166.146ZM180.788 206.573C169.839 206.573 160.855 197.59 160.855 186.641C160.855 175.692 169.839 166.708 180.788 166.708C191.737 166.708 200.721 175.692 200.721 186.641C200.721 197.59 191.737 206.573 180.788 206.573Z" fill="#00DCDC"/>
<path d="M152.151 129.93C137.272 137.51 126.042 150.705 120.708 166.988C115.374 182.99 116.778 200.677 124.077 214.995C124.077 214.995 125.2 217.241 126.042 218.645C126.885 220.048 16.2723 218.645 16.2723 218.645C9.53448 218.645 4.48113 213.03 5.04262 206.573L15.4301 77.9929C15.7108 72.378 20.7642 67.8862 26.379 67.8862H44.908V53.0069C44.908 26.6171 66.5251 5 92.9148 5C119.305 5 140.922 26.6171 140.922 53.0069V67.8862H159.451C165.065 67.8862 169.838 72.378 170.4 77.9929L174.049 123.473C166.469 124.315 158.889 126.28 152.151 129.93Z" stroke="#54596B" stroke-width="8.90071"/>
</svg>
