<svg width="29" height="29" viewBox="0 0 29 29" fill="none" xmlns="http://www.w3.org/2000/svg">
<circle cx="14.5" cy="14.5" r="13.92" fill="white" stroke="#898A8D" stroke-width="1.16"/>
<path d="M14.4994 17.128C14.2606 17.128 14.0536 17.0484 13.8785 16.8892C13.7193 16.73 13.6238 16.4991 13.5919 16.1966L12.7083 6.90635L12.6844 6.66753C12.6844 6.17396 12.8516 5.78388 13.1859 5.49729C13.5362 5.19478 13.974 5.04353 14.4994 5.04353C15.0567 5.04353 15.5105 5.21867 15.8607 5.56894C16.211 5.90329 16.3543 6.35706 16.2906 6.93023L15.407 16.1966C15.3751 16.4991 15.2716 16.73 15.0965 16.8892C14.9373 17.0484 14.7383 17.128 14.4994 17.128ZM14.4994 22.1433C13.99 22.1433 13.568 21.9761 13.2337 21.6418C12.8993 21.2915 12.7321 20.8616 12.7321 20.3521C12.7321 19.8426 12.8993 19.4207 13.2337 19.0864C13.568 18.7361 13.99 18.5609 14.4994 18.5609C15.0089 18.5609 15.4309 18.7361 15.7652 19.0864C16.0996 19.4207 16.2667 19.8426 16.2667 20.3521C16.2667 20.8616 16.0996 21.2915 15.7652 21.6418C15.4309 21.9761 15.0089 22.1433 14.4994 22.1433Z" fill="#9098B1"/>
</svg>
