<svg width="32" height="31" viewBox="0 0 32 31" fill="none" xmlns="http://www.w3.org/2000/svg">
<path d="M13 25.0004C14.8702 24.2601 15.9614 24.2399 18 25.0004V28C16.1136 28.3508 15.0118 28.319 13 28V25.0004Z" fill="#00DCDC"/>
<path d="M30.285 9.82368H26.5933V13.7061H30.2846V9.82368H30.285ZM28.1393 11.6953H27.1609V10.6967H28.1393V11.6953ZM29.812 11.6953H28.8336V10.6967H29.812V11.6953ZM22.5266 1H8.29907C7.67172 1 7.16339 1.51904 7.16339 2.15959V27.6739C7.16339 28.3144 7.67172 28.8338 8.29907 28.8338H22.5266C23.1542 28.8338 23.6626 28.3144 23.6626 27.6739V2.15959C23.6626 1.51904 23.1542 1 22.5266 1ZM15.4131 27.6991C14.6701 27.6991 14.0681 27.0841 14.0681 26.3258C14.0681 25.5675 14.6701 24.9521 15.4131 24.9521C16.1558 24.9521 16.7585 25.5675 16.7585 26.3258C16.7585 27.0841 16.1558 27.6991 15.4131 27.6991ZM21.6302 23.9048H9.19574V3.07514H21.6299V23.9048H21.6302ZM3.98968 4.42533C1.33832 4.42533 1.27832 6.15875 1.27832 6.15875V9.50001H2.286V25.4939L3.42201 28.8335L4.55769 25.4939V5.00529C4.55769 4.68502 4.30369 4.42533 3.98968 4.42533ZM25.5996 14.2861V19.5047C25.5996 19.9319 25.9389 20.278 26.3566 20.278H27.4296V28.0602C27.4296 28.4873 27.7686 28.8335 28.1866 28.8335H28.6916C29.1096 28.8335 29.4486 28.487 29.4486 28.0602V20.278H30.5213C30.9396 20.278 31.2783 19.9315 31.2783 19.5047V14.2861H25.5996Z" fill="#54596B" stroke="white"/>
</svg>
