<svg width="30" height="30" viewBox="0 0 30 30" fill="none" xmlns="http://www.w3.org/2000/svg">
<path d="M3.11483 16.832C2.85929 16.8789 2.69668 17.1367 2.74314 17.371C3.64913 22.1043 7.31953 25.8066 12.0121 26.6971C12.2676 26.7439 12.4999 26.5799 12.5464 26.3222C12.7322 25.4317 13.5917 24.8693 14.4745 25.0568C15.1017 25.1974 15.5895 25.6895 15.7289 26.3222C15.7754 26.5799 16.0309 26.7439 16.2632 26.6971C20.9558 25.8066 24.6262 22.1043 25.5321 17.371C25.5786 17.1132 25.416 16.8789 25.1605 16.832C24.2777 16.6446 23.7202 15.7776 23.906 14.9106C24.0454 14.2779 24.5332 13.7624 25.1605 13.6452C25.416 13.5984 25.5786 13.3406 25.5321 13.1063C25.1605 11.0677 24.2545 9.19308 22.9071 7.62311C22.7677 7.9043 22.5587 8.16205 22.3264 8.39638C22.9303 9.12278 23.4414 9.94291 23.8363 10.8099H4.43896C5.83278 7.7637 8.52751 5.53762 11.7798 4.78779C12.3141 6.1 13.8008 6.73268 15.1017 6.19373C15.7289 5.93598 16.24 5.42046 16.4955 4.78779C16.9601 4.90495 17.4247 5.04554 17.8661 5.20957C18.0055 4.90495 18.1681 4.64719 18.4004 4.41287C17.7035 4.13168 16.9834 3.92079 16.2632 3.7802C16.0077 3.73333 15.7754 3.89736 15.7289 4.15511C15.5431 5.04555 14.6836 5.60792 13.8008 5.42046C13.1736 5.27987 12.6857 4.78779 12.5464 4.15511C12.4999 3.89736 12.2444 3.73333 12.0121 3.7802C7.31953 4.67063 3.64913 8.37294 2.74314 13.1063C2.69668 13.364 2.85929 13.5984 3.11483 13.6452C3.99758 13.8327 4.55511 14.6997 4.36927 15.5667C4.22988 16.1994 3.74205 16.7149 3.11483 16.832ZM16.4955 25.7129C15.9612 24.4007 14.4745 23.768 13.1736 24.307C12.5464 24.5647 12.0353 25.0802 11.7798 25.7129C8.55074 24.9631 5.83278 22.737 4.43896 19.6908H23.8363C22.4425 22.737 19.7478 24.9631 16.4955 25.7129ZM3.74205 12.8485C3.83497 12.4736 3.92789 12.0753 4.06727 11.7238H24.208C24.3474 12.0987 24.4403 12.4736 24.5332 12.8485C23.2323 13.3875 22.6051 14.8871 23.1394 16.1994C23.3949 16.832 23.906 17.3475 24.5332 17.6053C24.4403 17.9802 24.3474 18.3786 24.208 18.7301H4.06727C3.92789 18.3551 3.83497 17.9802 3.74205 17.6053C5.04295 17.0664 5.67017 15.5667 5.13587 14.2545C4.88034 13.6218 4.36927 13.1297 3.74205 12.8485Z" fill="#54596B"/>
<path d="M0.187751 19.76C0.512976 20.8145 1.30281 21.5643 1.99972 22.2439C2.37141 22.5719 2.69663 22.9469 2.99863 23.3218C3.27739 23.7201 3.5097 24.1653 3.69554 24.6106C4.11369 25.501 4.57829 26.4851 5.48428 27.1413C6.3438 27.7739 7.36594 27.9145 8.36485 28.0551C8.87591 28.102 9.36375 28.2191 9.85159 28.3597C10.3394 28.5472 10.7808 28.7581 11.2222 29.0158C12.1049 29.4845 13.0109 30 14.0795 30H14.1027C15.2178 30 16.1703 29.4845 17.0298 29.0158C17.4479 28.7815 17.8893 28.5706 18.3539 28.3832C18.8185 28.2426 19.3064 28.1488 19.7942 28.102C20.7466 27.9848 21.8385 27.8208 22.7212 27.1881C23.604 26.5554 24.0686 25.5713 24.51 24.7043C24.719 24.2356 24.9513 23.8139 25.2301 23.3921C25.5321 23.0172 25.8573 22.6657 26.2058 22.361C26.9027 21.6815 27.7158 20.9317 28.0642 19.8538C28.4127 18.7759 28.2268 17.6746 28.041 16.7138C27.9481 16.2452 27.8784 15.7765 27.8551 15.2845C27.8784 14.7924 27.9481 14.2769 28.041 13.7848C28.2036 12.8241 28.4127 11.7462 28.0874 10.7151C27.7622 9.66069 26.9724 8.91086 26.2755 8.23132C25.9038 7.90326 25.5786 7.52835 25.2766 7.15343C24.9978 6.75508 24.7655 6.30986 24.5797 5.86465C24.51 5.74748 24.4635 5.60689 24.3938 5.4663C25.9038 4.5993 27.739 3.14649 29.6439 0.756387C29.8065 0.545495 29.76 0.264307 29.5742 0.10028C29.3651 -0.0637465 29.0863 -0.0168817 28.9237 0.170577C27.1118 2.44352 25.3927 3.8026 23.9524 4.62273C23.6504 4.10722 23.2787 3.662 22.8141 3.31052C22.7445 3.26365 22.698 3.24022 22.6283 3.19335C23.7201 2.27949 24.9281 1.50622 26.2058 0.896981C26.4381 0.803252 26.531 0.545495 26.4613 0.311172C26.3684 0.0768478 26.1129 -0.0637465 25.8573 0.029983C25.8341 0.029983 25.8341 0.0534154 25.8109 0.0534154C24.3241 0.756387 22.9303 1.67025 21.6991 2.77157C21.1183 2.60755 20.5376 2.46695 19.9336 2.39665C19.4225 2.34979 18.9114 2.25606 18.4236 2.11547C17.9358 1.92801 17.4944 1.71711 17.053 1.45936C16.1703 0.967278 15.2643 0.475198 14.1957 0.475198H14.1724C13.0574 0.475198 12.1049 0.990711 11.2454 1.45936C10.8273 1.69368 10.3859 1.90457 9.92128 2.09203C9.45667 2.23263 8.96883 2.32636 8.481 2.37322C7.52855 2.49038 6.43672 2.65441 5.55397 3.28708C4.67121 3.91976 4.20661 4.90392 3.76523 5.77092C3.55616 6.23956 3.32385 6.66135 3.04509 7.08313C2.74309 7.45805 2.41787 7.80953 2.06941 8.11415C1.3725 8.79369 0.559437 9.54353 0.210981 10.6214C-0.137474 11.6993 0.0483688 12.8006 0.234212 13.7614C0.327133 14.23 0.396824 14.6987 0.420055 15.1907C0.396824 15.6828 0.327133 16.1983 0.234212 16.6904C0.0483688 17.6277 -0.160705 18.7056 0.187751 19.76ZM1.09374 10.926C1.53511 9.56696 2.99863 8.7234 3.81169 7.62207C4.64798 6.47389 4.99644 4.83362 6.1115 4.01349C7.24979 3.19335 8.89914 3.38081 10.2233 2.95903C11.5242 2.53725 12.7786 1.41249 14.1724 1.41249C15.5198 1.41249 16.7742 2.53725 18.1216 3.0059C19.469 3.47454 21.1416 3.28708 22.2334 4.08379C22.5818 4.36497 22.8838 4.69303 23.1161 5.06795C22.7909 5.23197 22.4425 5.37257 22.094 5.48973C21.6294 4.57587 20.5143 4.20095 19.6084 4.66959C18.7024 5.13824 18.3307 6.263 18.7953 7.17686C19.2599 8.09072 20.375 8.46564 21.2809 7.99699C21.8849 7.69237 22.2798 7.08313 22.3031 6.40359C22.7445 6.263 23.1626 6.07554 23.5807 5.88808C23.8363 6.52075 24.1615 7.10656 24.5332 7.66894C25.3463 8.79369 26.8098 9.63726 27.2279 10.9729C27.6461 12.2851 26.9724 13.8317 26.9492 15.2376C26.9492 16.5967 27.6461 18.1432 27.1815 19.5023C26.7401 20.8614 25.2766 21.7049 24.4635 22.8063C23.6272 23.9544 23.2788 25.5947 22.1637 26.4148C21.0254 27.235 19.376 27.0475 18.0519 27.4693C16.751 27.8911 15.4966 29.0158 14.1027 29.0158C12.7554 29.0158 11.5009 27.8911 10.1536 27.4224C8.80622 26.9538 7.13364 27.1413 6.04181 26.3445C4.90352 25.501 4.57829 23.8607 3.76523 22.736C2.95217 21.6112 1.48865 20.7676 1.07051 19.432C0.652359 18.1198 1.32604 16.5732 1.34927 15.1673C1.34927 13.8317 0.652359 12.2851 1.09374 10.926ZM20.4214 6.80194C20.7234 6.80194 21.0022 6.75508 21.2809 6.70821C21.0951 7.20029 20.5376 7.43462 20.073 7.22372C19.5851 7.03627 19.3528 6.47389 19.5619 6.00524C19.771 5.53659 20.3053 5.27884 20.7699 5.48973C20.9325 5.56003 21.0486 5.65376 21.1648 5.77092C20.9325 5.81778 20.6769 5.86465 20.4446 5.86465C20.1891 5.86465 19.98 6.07554 19.98 6.33329C19.9568 6.59105 20.1659 6.77851 20.4214 6.80194Z" fill="#54596B"/>
<path d="M3.79675 12.7659L4.11315 11.6489H24.0462L24.3626 12.7659C22.4078 14.8551 22.7135 15.8734 24.3626 17.5532L24.0462 18.6702H4.11315L3.79675 17.5532C5.63054 15.8528 5.72197 14.6834 3.79675 12.7659Z" fill="#00DCDC" stroke="#00DCDC" stroke-width="0.319149"/>
</svg>
