<svg width="24" height="33" viewBox="0 0 24 33" fill="none" xmlns="http://www.w3.org/2000/svg">
<path d="M1 11H20V13C12.4648 13.9568 8.2852 13.9599 1 13V11Z" fill="#00DCDC"/>
<path d="M20.1843 8.63569L21.1418 9.1245L23.0567 5.48556L21.6205 4.72519L22.4716 3.0415L19.3864 1.41213L14.9182 10.2651H13.9076V4.18206C13.9076 4.18206 13.9076 4.18206 13.9076 4.12775C13.9076 4.07344 13.9076 4.07344 13.9076 4.01913C13.9076 3.96481 13.9076 3.96481 13.8544 3.9105C13.8544 3.9105 13.8544 3.9105 13.8544 3.85619L11.8331 0.271563C11.7267 0.108625 11.5671 0 11.3543 0C11.1416 0 10.982 0.108625 10.8756 0.271563L8.90746 3.85619C8.90746 3.85619 8.90746 3.85619 8.90746 3.9105C8.90746 3.96481 8.90746 3.96481 8.85427 4.01913C8.85427 4.07344 8.85427 4.07344 8.85427 4.12775C8.85427 4.12775 8.85427 4.12775 8.85427 4.18206V10.2651H8.05638V0.597438H2.36477V10.2651H1.93922C1.19453 10.2651 0.609409 10.8082 0.503024 11.5686L0.237061 14.1213H1.77965V32.8591H18.9609V14.1213H20.5035L20.2375 11.5686C20.1311 10.8082 19.546 10.2651 18.8013 10.2651L21.0886 5.70281L21.5673 5.97438L20.1843 8.63569ZM21.0354 3.53031L20.663 4.23638L19.4928 3.58463L19.8651 2.87856L21.0354 3.53031ZM11.3011 1.68369L12.4182 3.63894H10.2373L11.3011 1.68369ZM9.86493 4.72519H12.7905V10.2651H9.86493V4.72519V4.72519ZM3.42862 9.559H4.65205V8.47275H3.42862V7.54944H5.76909V6.46319H3.42862V5.53988H4.65205V4.45363H3.42862V3.53031H5.23717V2.44406H3.42862V1.68369H6.93933V10.2651H3.42862V9.559V9.559ZM17.897 31.7728H2.8435V14.1213H17.897V31.7728ZM19.1736 11.6772L19.3332 13.035H1.4073L1.56688 11.6772C1.56688 11.4599 1.77965 11.3513 1.93922 11.3513H18.8013C19.0141 11.3513 19.1736 11.5143 19.1736 11.6772ZM17.5779 10.2651H16.0885L18.9609 4.56225L20.1311 5.214L17.5779 10.2651Z" fill="#54596B"/>
<path d="M11.833 5.86572H10.7692V9.45038H11.833V5.86572Z" fill="#54596B"/>
<path d="M7.47126 31.1754V30.0891H4.54566V25.9614H3.48181V31.1754H7.47126Z" fill="#54596B"/>
</svg>
