<svg width="18" height="25" viewBox="0 0 18 25" fill="none" xmlns="http://www.w3.org/2000/svg">
<g filter="url(#filter0_d)">
<path d="M12.9974 2.85968C12.7613 2.30219 12.4236 1.80137 11.9943 1.3715C11.5646 0.94199 11.064 0.604348 10.5061 0.368387C9.92809 0.124092 9.31448 0 8.68291 0C8.05096 0 7.43773 0.124092 6.85968 0.368387C6.30182 0.604348 5.80119 0.941804 5.3715 1.3715C4.9418 1.80137 4.60435 2.302 4.36839 2.85986C4.12391 3.43791 4 4.05133 4 4.68309C4 4.74106 4.04723 4.78848 4.10557 4.78848H6.13642C6.19477 4.78848 6.24181 4.74106 6.24181 4.68309C6.24181 3.33715 7.33697 2.24199 8.68291 2.24199C10.0287 2.24199 11.124 3.33715 11.124 4.68309C11.124 5.44691 10.776 6.15275 10.1698 6.6193C10.0877 6.68209 10.0016 6.74024 9.9129 6.7921C9.90271 6.79803 9.89234 6.80396 9.88216 6.80988C9.87679 6.81303 9.87123 6.81618 9.86512 6.8197L9.86475 6.81989C8.44417 7.58111 7.562 9.0541 7.562 10.6653V11.4698C7.562 11.5282 7.60923 11.5754 7.66757 11.5754H9.69843C9.75658 11.5754 9.80363 11.5282 9.80363 11.4698V10.6653C9.80363 9.87663 10.2378 9.15763 10.9362 8.78906C10.9514 8.7811 10.9662 8.77276 10.981 8.76406L10.994 8.75628C11.0107 8.74702 11.0273 8.73739 11.0436 8.72794C11.214 8.62867 11.3796 8.5168 11.5367 8.39604C12.0923 7.9682 12.5527 7.41182 12.8676 6.78655C13.1982 6.12997 13.366 5.42209 13.366 4.68309C13.366 4.05115 13.2419 3.43772 12.9974 2.85968Z" fill="white"/>
<path d="M8.68268 13.2266C7.73291 13.2266 6.96021 13.9995 6.96021 14.9492C6.96021 15.899 7.73291 16.6717 8.68268 16.6717C9.63263 16.6717 10.4053 15.899 10.4053 14.9492C10.4053 13.9995 9.63263 13.2266 8.68268 13.2266Z" fill="white"/>
</g>
<defs>
<filter id="filter0_d" x="0" y="0" width="17.366" height="24.6717" filterUnits="userSpaceOnUse" color-interpolation-filters="sRGB">
<feFlood flood-opacity="0" result="BackgroundImageFix"/>
<feColorMatrix in="SourceAlpha" type="matrix" values="0 0 0 0 0 0 0 0 0 0 0 0 0 0 0 0 0 0 127 0"/>
<feOffset dy="4"/>
<feGaussianBlur stdDeviation="2"/>
<feColorMatrix type="matrix" values="0 0 0 0 0 0 0 0 0 0 0 0 0 0 0 0 0 0 0.25 0"/>
<feBlend mode="normal" in2="BackgroundImageFix" result="effect1_dropShadow"/>
<feBlend mode="normal" in="SourceGraphic" in2="effect1_dropShadow" result="shape"/>
</filter>
</defs>
</svg>
