<svg width="302" height="249" viewBox="0 0 302 249" fill="none" xmlns="http://www.w3.org/2000/svg">
<path d="M34.9118 91.6137L56.8253 101.038C58.2323 101.641 59.8239 101.661 61.2483 101.09C62.6693 100.526 63.8116 99.4151 64.4142 98.0046L68.1198 89.3708L80.4522 94.6681L76.7361 103.309C76.1301 104.716 76.1092 106.307 76.6769 107.732C77.2446 109.153 78.3521 110.292 79.7626 110.894L101.676 120.315C102.407 120.625 103.181 120.785 103.954 120.785C104.682 120.785 105.41 120.649 106.096 120.378C107.52 119.807 108.659 118.699 109.265 117.292L126.317 77.6235L187.627 103.984C190.483 123.634 203.271 140.414 221.643 148.316C228.838 151.413 236.431 152.976 244.204 152.976C267.103 152.976 287.745 139.39 296.787 118.358C309.248 89.3847 295.808 55.6752 266.821 43.2105C259.629 40.1213 252.044 38.554 244.27 38.554C228.347 38.554 213.403 45.0424 202.631 56.4972L73.8037 1.11448C72.0867 0.376136 70.2652 0 68.3949 0C62.8748 0 57.9014 3.26682 55.7317 8.32725L47.0318 28.5725C44.855 33.6434 45.9765 39.3133 49.4279 43.1826L31.8888 84.0352C30.6315 86.9642 31.9793 90.353 34.9118 91.6137ZM57.6437 33.1314L66.3436 12.8827C66.7372 11.9563 67.6636 11.5488 68.3984 11.5488C68.6875 11.5488 68.9661 11.6045 69.2447 11.7229L201.931 68.7738C204.313 69.7943 207.078 69.1047 208.701 67.0882C217.269 56.4554 230.566 50.1098 244.263 50.1098C250.459 50.1098 256.512 51.3566 262.259 53.8224C285.388 63.7726 296.121 90.6803 286.175 113.802C278.948 130.589 262.478 141.434 244.197 141.434C238.005 141.434 231.941 140.181 226.198 137.711C210.665 131.035 200.144 116.4 198.723 99.5196C198.545 97.3916 197.208 95.5388 195.251 94.6994L125.627 64.7722C125.61 64.7617 125.585 64.7443 125.561 64.7373L60.8443 36.9171L58.7895 36.036C57.6959 35.5589 57.1735 34.2354 57.6437 33.1314ZM59.5314 48.9222L64.6928 51.1442L115.698 73.0646L100.931 107.432L89.6223 102.574L93.3419 93.9263C93.9479 92.5157 93.9688 90.9276 93.4046 89.5032C92.8369 88.0822 91.7259 86.9434 90.3154 86.3374L67.3815 76.4777C65.971 75.8717 64.3793 75.8543 62.9549 76.422C61.5304 76.9862 60.3951 78.0972 59.7856 79.5077L56.0799 88.1449L44.7715 83.283L59.5314 48.9222Z" fill="#54596B"/>
<circle cx="243.5" cy="93.5" r="16.5" fill="#00DCDC"/>
<path d="M220.182 100.177C222.091 107.721 227.287 113.809 234.444 116.887C237.572 118.225 240.863 118.907 244.231 118.907C245.972 118.907 247.72 118.719 249.42 118.354C257.298 116.679 263.894 111.263 267.064 103.883C272.469 91.3171 266.635 76.6826 254.062 71.26C250.935 69.9191 247.647 69.24 244.272 69.24C234.326 69.24 225.361 75.1432 221.443 84.2646C219.73 88.2245 219.082 92.5709 219.562 96.8373C219.691 97.9448 219.897 99.0697 220.182 100.177ZM232.045 88.8339C234.148 83.9442 238.94 80.7853 244.269 80.7853C246.066 80.7853 247.825 81.1475 249.493 81.8615C256.222 84.7626 259.342 92.5988 256.455 99.324C254.763 103.273 251.231 106.164 247.006 107.066C244.325 107.641 241.542 107.366 239.007 106.279C235.179 104.632 232.396 101.372 231.376 97.3318C231.219 96.7258 231.111 96.1268 231.041 95.5382C230.78 93.271 231.129 90.9619 232.045 88.8339Z" fill="#54596B"/>
<rect x="10" y="138" width="52" height="97" fill="#00DCDC"/>
<path d="M282.925 162.579C275.747 162.579 267.935 165.093 260.308 169.854C256.456 171.446 252.534 173.02 248.386 174.674C235.277 179.926 221.803 185.321 209.801 191.681C211.055 187.972 211.051 184.193 209.773 180.623C207.185 173.341 199.98 168.35 193.986 164.811L157.501 142.609C157.473 142.588 157.445 142.574 157.42 142.557C154.147 140.638 149.929 139.161 144.513 138.053C140.557 137.252 134.448 136.389 129.179 136.389C127.74 136.389 126.424 136.455 125.25 136.58L70.0452 142.63C70.0487 139.962 68.976 137.406 67.0117 135.417C64.7549 133.136 61.502 131.816 58.0994 131.802L12.4649 131.589C12.4579 131.589 12.4127 131.589 12.4057 131.589C5.83026 131.589 0.452892 136.403 0.418065 142.327L0.000133576 232.718C-0.0137974 235.403 1.06237 237.973 3.03013 239.966C5.28347 242.247 8.53635 243.563 11.946 243.584L57.5735 243.81C57.5804 243.81 57.6292 243.81 57.6431 243.81C63.3444 243.81 68.1332 240.185 69.3277 235.358L183.464 248.094C183.555 248.105 183.646 248.108 183.733 248.119L184.029 248.136C184.948 248.192 185.868 248.244 186.783 248.307C190.141 248.519 193.603 248.739 197.12 248.739C198.304 248.739 199.461 248.714 200.544 248.665C214.625 248.056 222.781 245.44 232.815 238.329L286.313 201.091C286.376 201.046 286.442 201.001 286.502 200.948C303.553 187.992 302.268 177.311 300.924 173.316C298.702 166.688 291.802 162.579 282.925 162.579ZM57.6431 232.262V238.033L57.6327 232.262L12.0017 232.032C11.8206 232.032 11.6673 232.007 11.5524 231.973L11.9738 143.194C12.0957 143.163 12.2385 143.138 12.4196 143.138L58.0541 143.351C58.2317 143.351 58.378 143.378 58.4999 143.413L58.472 148.641C58.465 148.777 58.4546 148.913 58.4546 149.055L58.364 172.386L58.0854 232.202C57.9635 232.237 57.8173 232.262 57.6431 232.262ZM279.62 191.677L226.187 228.873C217.884 234.752 212.023 236.605 200.032 237.124C199.098 237.165 198.144 237.186 197.124 237.186C193.972 237.186 190.837 236.991 187.518 236.779C186.581 236.716 185.641 236.66 184.736 236.605L184.61 236.598L69.7074 223.781L69.9128 172.059L69.9964 154.252L126.514 148.063C127.274 147.979 128.169 147.937 129.186 147.937C133.609 147.937 138.972 148.711 142.211 149.369C146.276 150.205 149.417 151.26 151.548 152.496L188.027 174.699C188.051 174.713 188.076 174.727 188.103 174.741C190.392 176.092 197.381 180.209 198.907 184.503C199.213 185.356 199.492 186.7 198.569 188.741C197.59 189.602 194.226 191.413 190.67 191.413C189.8 191.413 189.009 191.305 188.305 191.075C187.619 190.716 186.874 190.329 186.195 189.999C186.132 189.967 186.076 189.943 186.017 189.915C182.813 188.449 150.437 174.859 143.886 172.139C140.944 170.913 137.572 172.303 136.343 175.239C135.113 178.171 136.489 181.553 139.425 182.786L139.895 182.981C153.586 188.752 167.273 194.526 180.946 200.304C181.779 200.819 182.667 201.269 183.583 201.638L183.799 201.749C188.581 204.281 195.132 207.747 201.181 207.747C203.751 207.747 206.054 207.141 208.035 205.939C220.981 198.089 237.095 191.632 252.688 185.387C257.024 183.653 261.119 182.013 265.177 180.33C265.487 180.202 265.783 180.048 266.068 179.867C271.895 176.162 277.882 174.124 282.928 174.124C286.578 174.124 289.417 175.277 289.991 176.99C290.862 179.596 287.989 185.293 279.62 191.677Z" fill="#54596B"/>
</svg>
