<svg width="30" height="30" viewBox="0 0 30 30" fill="none" xmlns="http://www.w3.org/2000/svg">
<path d="M29.7979 15.0505C29.7979 22.9722 23.1953 29.394 15.0505 29.394C6.90565 29.394 0.302979 22.9722 0.302979 15.0505C0.302979 7.12887 6.90565 0.707092 15.0505 0.707092C23.1953 0.707092 29.7979 7.12887 29.7979 15.0505ZM1.73539 15.0505C1.73539 22.2028 7.69674 28.0008 15.0505 28.0008C22.4042 28.0008 28.3655 22.2028 28.3655 15.0505C28.3655 7.89829 22.4042 2.10026 15.0505 2.10026C7.69674 2.10026 1.73539 7.89829 1.73539 15.0505Z" fill="#00DCDC"/>
<path d="M15 1.59143C14.4416 1.59143 13.8911 1.62562 13.3503 1.69221C13.2759 1.70137 13.206 1.73258 13.1496 1.78182C13.0931 1.83106 13.0527 1.89607 13.0336 1.96848L11.5029 7.75227C11.2673 8.64288 10.2608 9.37425 9.34098 9.32317L3.28004 8.98655C3.20595 8.98243 3.1323 9.00038 3.06841 9.03814C3.00453 9.0759 2.95328 9.13176 2.92116 9.19866C2.45714 10.1652 2.10563 11.1963 1.8839 12.2741C1.86868 12.3482 1.8762 12.4251 1.90547 12.4948C1.93475 12.5645 1.98442 12.6238 2.04796 12.6648L7.17975 15.9747C7.9539 16.4741 8.33844 17.6574 8.00563 18.5164L5.74948 24.3394C5.72249 24.4091 5.71694 24.4853 5.73354 24.5582C5.75014 24.631 5.78813 24.6973 5.84264 24.7484C6.60969 25.4679 7.46136 26.0983 8.38136 26.6228C8.44712 26.6603 8.52268 26.677 8.59811 26.6707C8.67354 26.6644 8.7453 26.6355 8.80397 26.5877L13.6639 22.6272C14.378 22.0452 15.6219 22.0452 16.336 22.6272L21.196 26.5877C21.2546 26.6355 21.3264 26.6644 21.4018 26.6707C21.4772 26.677 21.5528 26.6603 21.6186 26.6228C22.5386 26.0983 23.3902 25.4679 24.1573 24.7484C24.2118 24.6973 24.2498 24.631 24.2664 24.5582C24.283 24.4853 24.2774 24.4091 24.2504 24.3394L21.9943 18.5164C21.6615 17.6574 22.046 16.4741 22.8202 15.9747L27.952 12.6648C28.0155 12.6238 28.0652 12.5645 28.0945 12.4948C28.1237 12.4251 28.1312 12.3482 28.116 12.2741C27.8943 11.1963 27.5428 10.1652 27.0788 9.19866C27.0466 9.13176 26.9954 9.0759 26.9315 9.03814C26.8676 9.00038 26.794 8.98243 26.7199 8.98655L20.6589 9.32317C19.7391 9.37425 18.7326 8.64288 18.497 7.75227L16.9664 1.96848C16.9472 1.89607 16.9068 1.83106 16.8504 1.78182C16.7939 1.73258 16.724 1.70137 16.6497 1.69221C16.1088 1.62562 15.5583 1.59143 15 1.59143ZM15 2.34143C15.4424 2.34143 15.8779 2.36924 16.3085 2.41365L17.7719 7.94416C18.1092 9.2191 19.3838 10.1451 20.7005 10.072L26.5031 9.74973C26.8549 10.5211 27.1309 11.3334 27.3227 12.1781L22.4137 15.3444C22.4136 15.3444 22.4136 15.3444 22.4135 15.3444C21.3053 16.0593 20.8185 17.5575 21.295 18.7872L23.4568 24.367C22.8437 24.9199 22.1768 25.4133 21.4642 25.8388L16.8099 22.0458C15.7876 21.2126 14.2123 21.2126 13.19 22.0458L8.53575 25.8388C7.8231 25.4133 7.15626 24.9199 6.54313 24.367L8.70494 18.7872C9.18138 17.5575 8.69459 16.0593 7.58639 15.3444C7.58634 15.3444 7.58629 15.3444 7.58624 15.3444L2.67725 12.1781C2.86898 11.3334 3.14501 10.5211 3.49683 9.74973L9.29937 10.072C10.6162 10.1451 11.8907 9.2191 12.228 7.94416L13.6914 2.41365C14.122 2.36924 14.5575 2.34143 15 2.34143Z" fill="#54596B"/>
<path fill-rule="evenodd" clip-rule="evenodd" d="M30 15C30.0007 16.0148 29.898 17.0273 29.6947 18.021C29.4975 18.9862 29.2042 19.9297 28.8202 20.8365C28.065 22.6177 26.973 24.237 25.6042 25.6042C24.237 26.973 22.6177 28.065 20.8365 28.8202C19.9297 29.2042 18.9862 29.4975 18.021 29.6947C17.0273 29.898 16.0148 30.0007 15 30C13.9853 30.0007 12.9728 29.898 11.979 29.6947C11.0138 29.4975 10.0703 29.2042 9.1635 28.8202C7.38225 28.065 5.763 26.973 4.39575 25.6042C3.027 24.237 1.935 22.6177 1.17975 20.8365C0.795754 19.9297 0.502504 18.9862 0.305254 18.021C0.102004 17.0273 -0.000745924 16.0148 4.07623e-06 15C-0.000745924 13.9853 0.102004 12.9735 0.305254 11.979C0.502504 11.0138 0.795754 10.0703 1.17975 9.1635C1.935 7.38225 3.027 5.763 4.39575 4.39575C5.763 3.027 7.38225 1.935 9.1635 1.17975C10.0703 0.795754 11.0138 0.502504 11.979 0.305254C12.9728 0.102004 13.9853 -0.000745924 15 4.07623e-06C16.0148 -0.000745924 17.0273 0.102004 18.021 0.305254C18.9862 0.502504 19.9297 0.795754 20.8365 1.17975C22.6177 1.935 24.237 3.027 25.6042 4.39575C26.973 5.763 28.065 7.38225 28.8202 9.1635C29.2042 10.0703 29.4975 11.0138 29.6947 11.979C29.898 12.9728 30.0007 13.9853 30 15ZM29.25 15C29.2507 15.9645 29.1532 16.926 28.9605 17.871C28.7722 18.7875 28.494 19.683 28.1295 20.544C27.4125 22.2367 26.3745 23.775 25.074 25.074C23.775 26.3745 22.2367 27.4125 20.544 28.1295C19.683 28.494 18.7875 28.7722 17.871 28.9605C16.926 29.1532 15.9645 29.2507 15 29.25C14.0355 29.2507 13.074 29.1532 12.129 28.9605C11.2125 28.7722 10.317 28.494 9.456 28.1295C7.76325 27.4125 6.225 26.3745 4.926 25.074C3.6255 23.775 2.5875 22.2367 1.8705 20.544C1.506 19.683 1.22775 18.7875 1.0395 17.871C0.846754 16.926 0.749254 15.9645 0.750004 15C0.749254 14.0355 0.846754 13.074 1.0395 12.129C1.22775 11.2125 1.506 10.317 1.8705 9.456C2.5875 7.76325 3.6255 6.225 4.926 4.926C6.225 3.6255 7.76325 2.5875 9.456 1.8705C10.317 1.506 11.2125 1.22775 12.129 1.0395C13.074 0.846754 14.0355 0.749254 15 0.750004C15.9645 0.749254 16.926 0.846754 17.871 1.0395C18.7875 1.22775 19.683 1.506 20.544 1.8705C22.2367 2.5875 23.775 3.6255 25.074 4.926C26.3745 6.225 27.4125 7.76325 28.1295 9.456C28.494 10.317 28.7722 11.2125 28.9605 12.129C29.1532 13.074 29.2507 14.0355 29.25 15Z" fill="#54596B"/>
<circle cx="15" cy="15" r="2" fill="#00DCDC"/>
<path fill-rule="evenodd" clip-rule="evenodd" d="M28.3904 14.9812V14.9819C28.3919 16.7714 28.0334 18.5437 27.3374 20.1922C26.6631 21.7822 25.6889 23.2274 24.4664 24.4484C23.2461 25.6702 21.8009 26.6452 20.2101 27.3194C18.5616 28.0154 16.7894 28.3739 14.9999 28.3724C13.2104 28.3739 11.4381 28.0154 9.78963 27.3194C8.19888 26.6452 6.75363 25.6702 5.53338 24.4484C4.31088 23.2274 3.33663 21.7822 2.66238 20.1922C1.96638 18.5437 1.60788 16.7714 1.60938 14.9819C1.60788 13.1917 1.96638 11.4202 2.66238 9.77168C3.33663 8.18093 4.31088 6.73568 5.53338 5.51468C6.75363 4.29293 8.19888 3.31793 9.78963 2.64443C11.4381 1.94768 13.2104 1.58994 14.9999 1.59144C16.7894 1.58994 18.5616 1.94768 20.2101 2.64443C21.8009 3.31793 23.2461 4.29293 24.4664 5.51468C25.6889 6.73568 26.6631 8.18093 27.3374 9.77168C28.0334 11.4202 28.3919 13.1917 28.3904 14.9819V14.9812ZM27.6404 14.9812V14.9819C27.6419 16.6709 27.3036 18.3434 26.6466 19.8997C26.0099 21.4012 25.0896 22.7654 23.9361 23.9182C22.7841 25.0717 21.4191 25.9919 19.9176 26.6287C18.3614 27.2857 16.6889 27.6239 14.9999 27.6224C13.3109 27.6239 11.6384 27.2857 10.0821 26.6287C8.58063 25.9919 7.21563 25.0717 6.06363 23.9182C4.91013 22.7654 3.98988 21.4012 3.35313 19.8997C2.69613 18.3434 2.35788 16.6709 2.35938 14.9819C2.35788 13.2922 2.69613 11.6197 3.35313 10.0634C3.98988 8.56193 4.91013 7.19768 6.06363 6.04493C7.21563 4.89143 8.58063 3.97118 10.0821 3.33518C11.6384 2.67744 13.3109 2.33994 14.9999 2.34144C16.6889 2.33994 18.3614 2.67744 19.9176 3.33518C21.4191 3.97118 22.7841 4.89143 23.9361 6.04493C25.0896 7.19768 26.0099 8.56193 26.6466 10.0634C27.3036 11.6197 27.6419 13.2922 27.6404 14.9812Z" fill="#54596B"/>
<path fill-rule="evenodd" clip-rule="evenodd" d="M12.6135 15.0005C12.6135 14.3675 12.8648 13.76 13.3125 13.313C13.7595 12.8653 14.367 12.614 15 12.614C15.633 12.614 16.2405 12.8653 16.6875 13.313C17.1353 13.76 17.3865 14.3675 17.3865 15.0005C17.3865 15.6335 17.1353 16.241 16.6875 16.688C16.2405 17.1358 15.633 17.387 15 17.387C14.367 17.387 13.7595 17.1358 13.3125 16.688C12.8648 16.241 12.6135 15.6335 12.6135 15.0005ZM13.3635 15.0005C13.3635 14.5663 13.536 14.15 13.8428 13.8433C14.1495 13.5365 14.5658 13.364 15 13.364C15.4343 13.364 15.8505 13.5365 16.1573 13.8433C16.464 14.15 16.6365 14.5663 16.6365 15.0005C16.6365 15.4348 16.464 15.851 16.1573 16.1578C15.8505 16.4645 15.4343 16.637 15 16.637C14.5658 16.637 14.1495 16.4645 13.8428 16.1578C13.536 15.851 13.3635 15.4348 13.3635 15.0005Z" fill="#54596B"/>
<path fill-rule="evenodd" clip-rule="evenodd" d="M14.0129 10.1541C14.0129 9.89238 14.1164 9.64113 14.3017 9.45588C14.4869 9.27063 14.7382 9.16638 14.9999 9.16638C15.2617 9.16638 15.5129 9.27063 15.6982 9.45588C15.8834 9.64113 15.9869 9.89238 15.9869 10.1541C15.9869 10.4159 15.8834 10.6671 15.6982 10.8524C15.5129 11.0369 15.2617 11.1411 14.9999 11.1411C14.7382 11.1411 14.4869 11.0369 14.3017 10.8524C14.1164 10.6671 14.0129 10.4159 14.0129 10.1541ZM14.7629 10.1541C14.7629 10.0911 14.7877 10.0304 14.8319 9.98613C14.8769 9.94188 14.9369 9.91638 14.9999 9.91638C15.0629 9.91638 15.1229 9.94188 15.1679 9.98613C15.2122 10.0304 15.2369 10.0911 15.2369 10.1541C15.2369 10.2171 15.2122 10.2771 15.1679 10.3221C15.1229 10.3664 15.0629 10.3911 14.9999 10.3911C14.9369 10.3911 14.8769 10.3664 14.8319 10.3221C14.7877 10.2771 14.7629 10.2171 14.7629 10.1541Z" fill="#54596B"/>
<path fill-rule="evenodd" clip-rule="evenodd" d="M14.0129 19.7752C14.0129 19.5135 14.1164 19.2622 14.3017 19.077C14.4869 18.8917 14.7382 18.7875 14.9999 18.7875C15.2617 18.7875 15.5129 18.8917 15.6982 19.077C15.8834 19.2622 15.9869 19.5135 15.9869 19.7752C15.9869 20.037 15.8834 20.2882 15.6982 20.4735C15.5129 20.658 15.2617 20.7622 14.9999 20.7622C14.7382 20.7622 14.4869 20.658 14.3017 20.4735C14.1164 20.2882 14.0129 20.037 14.0129 19.7752ZM14.7629 19.7752C14.7629 19.7122 14.7877 19.6515 14.8319 19.6072C14.8769 19.563 14.9369 19.5375 14.9999 19.5375C15.0629 19.5375 15.1229 19.563 15.1679 19.6072C15.2122 19.6515 15.2369 19.7122 15.2369 19.7752C15.2369 19.8382 15.2122 19.8982 15.1679 19.9432C15.1229 19.9875 15.0629 20.0122 14.9999 20.0122C14.9369 20.0122 14.8769 19.9875 14.8319 19.9432C14.7877 19.8982 14.7629 19.8382 14.7629 19.7752Z" fill="#54596B"/>
<path fill-rule="evenodd" clip-rule="evenodd" d="M18.7838 11.8343C18.9263 11.7585 19.0853 11.7188 19.2465 11.7188C19.6118 11.718 19.9478 11.9198 20.1195 12.2423C20.1953 12.3848 20.235 12.543 20.235 12.705C20.235 13.0695 20.0333 13.4055 19.7115 13.5773C19.569 13.653 19.41 13.6928 19.2488 13.6928C18.8843 13.6935 18.5475 13.4918 18.3758 13.1693C18.3 13.0268 18.2603 12.8678 18.2603 12.7065C18.2603 12.342 18.462 12.0053 18.7838 11.8343ZM19.1363 12.4958C19.1708 12.4778 19.209 12.4688 19.2473 12.4688C19.335 12.468 19.416 12.5168 19.4573 12.5948C19.4753 12.6285 19.485 12.6668 19.485 12.705C19.485 12.7928 19.4363 12.8738 19.359 12.915C19.3245 12.9338 19.287 12.9428 19.248 12.9428C19.1603 12.9428 19.0793 12.8948 19.038 12.8168C19.02 12.783 19.0103 12.7448 19.0103 12.7065C19.0103 12.618 19.059 12.537 19.1363 12.4958Z" fill="#54596B"/>
<path fill-rule="evenodd" clip-rule="evenodd" d="M10.2884 16.3514C10.4309 16.2749 10.5899 16.2351 10.7511 16.2351C11.1156 16.2351 11.4524 16.4369 11.6241 16.7586C11.6999 16.9011 11.7396 17.0601 11.7396 17.2214C11.7396 17.5866 11.5379 17.9226 11.2161 18.0944C11.0736 18.1701 10.9146 18.2099 10.7534 18.2099C10.3881 18.2099 10.0521 18.0081 9.88039 17.6864C9.80464 17.5439 9.76489 17.3849 9.76489 17.2236C9.76489 16.8591 9.96664 16.5224 10.2884 16.3514ZM10.6409 17.0129C10.6754 16.9949 10.7129 16.9851 10.7519 16.9851C10.8396 16.9851 10.9206 17.0339 10.9619 17.1119C10.9799 17.1456 10.9896 17.1839 10.9896 17.2221C10.9896 17.3099 10.9409 17.3909 10.8636 17.4321C10.8291 17.4501 10.7909 17.4599 10.7526 17.4599C10.6649 17.4599 10.5839 17.4111 10.5426 17.3339C10.5246 17.3001 10.5149 17.2619 10.5149 17.2229C10.5149 17.1351 10.5636 17.0541 10.6409 17.0129Z" fill="#54596B"/>
<path fill-rule="evenodd" clip-rule="evenodd" d="M11.6241 13.1693C11.4524 13.4918 11.1156 13.6935 10.7511 13.6928C10.5899 13.6928 10.4309 13.653 10.2884 13.5773C9.96664 13.4055 9.76489 13.0695 9.76489 12.705C9.76489 12.543 9.80464 12.3848 9.88039 12.2423C10.0521 11.9198 10.3881 11.718 10.7534 11.7188C10.9146 11.7188 11.0736 11.7585 11.2161 11.8343C11.5379 12.0053 11.7396 12.342 11.7396 12.7065C11.7396 12.8678 11.6999 13.0268 11.6241 13.1693ZM10.9619 12.8168C10.9206 12.8948 10.8396 12.9428 10.7519 12.9428C10.7129 12.9428 10.6754 12.9338 10.6409 12.915C10.5636 12.8738 10.5149 12.7928 10.5149 12.705C10.5149 12.6668 10.5246 12.6285 10.5426 12.5948C10.5839 12.5168 10.6649 12.468 10.7526 12.4688C10.7909 12.4688 10.8291 12.4778 10.8636 12.4958C10.9409 12.537 10.9896 12.618 10.9896 12.7065C10.9896 12.7448 10.9799 12.783 10.9619 12.8168Z" fill="#54596B"/>
<path fill-rule="evenodd" clip-rule="evenodd" d="M20.1195 17.6864C19.9478 18.0081 19.6118 18.2099 19.2465 18.2099C19.0853 18.2099 18.9263 18.1701 18.7838 18.0944C18.462 17.9226 18.2603 17.5866 18.2603 17.2214C18.2603 17.0601 18.3 16.9011 18.3758 16.7586C18.5475 16.4369 18.8843 16.2351 19.2488 16.2351C19.41 16.2351 19.569 16.2749 19.7115 16.3514C20.0333 16.5224 20.235 16.8591 20.235 17.2236C20.235 17.3849 20.1953 17.5439 20.1195 17.6864ZM19.4573 17.3339C19.416 17.4111 19.335 17.4599 19.2473 17.4599C19.209 17.4599 19.1708 17.4501 19.1363 17.4321C19.059 17.3909 19.0103 17.3099 19.0103 17.2221C19.0103 17.1839 19.02 17.1456 19.038 17.1119C19.0793 17.0339 19.1603 16.9851 19.248 16.9851C19.287 16.9851 19.3245 16.9949 19.359 17.0129C19.4363 17.0541 19.485 17.1351 19.485 17.2229C19.485 17.2619 19.4753 17.3001 19.4573 17.3339Z" fill="#54596B"/>
</svg>
