<svg width="28" height="28" viewBox="0 0 28 28" fill="none" xmlns="http://www.w3.org/2000/svg">
<circle cx="9.5" cy="11.5" r="2.5" fill="#00DCDC"/>
<path fill-rule="evenodd" clip-rule="evenodd" d="M24.0039 0.272705C22.2403 0.272705 20.7981 1.71428 20.7981 3.4779C20.7981 4.01574 20.9337 4.5234 21.1701 4.96994L17.5541 7.92771C15.7954 5.6158 13.017 4.11931 9.89404 4.11931C4.58799 4.11931 0.272827 8.43447 0.272827 13.7405C0.272827 19.0466 4.58799 23.3617 9.89404 23.3617C12.7637 23.3617 15.3414 22.0981 17.1056 20.0995L18.5819 20.9859C18.3567 21.5201 18.2318 22.1059 18.2318 22.7203C18.2318 25.1924 20.2483 27.2115 22.7204 27.2115C25.1925 27.2115 27.2116 25.1924 27.2116 22.7203C27.2116 20.2482 25.1925 18.2317 22.7204 18.2317C21.3215 18.2317 20.0696 18.8786 19.2453 19.8872L17.8948 19.0773C18.9172 17.5492 19.5153 15.7136 19.5153 13.7405C19.5153 12.019 19.0587 10.4032 18.2637 9.00383L21.9826 5.96212C22.535 6.41365 23.239 6.68559 24.0039 6.68559C25.7675 6.68559 27.2116 5.24152 27.2116 3.4779C27.2116 1.71428 25.7675 0.272705 24.0039 0.272705ZM24.0039 1.55553C25.0742 1.55553 25.9281 2.40757 25.9281 3.4779C25.9281 4.54822 25.0742 5.40276 24.0039 5.40277C22.9336 5.40276 22.0815 4.54822 22.0815 3.4779C22.0815 2.40757 22.9336 1.55553 24.0039 1.55553ZM9.89404 5.40277C14.5068 5.40277 18.2318 9.12776 18.2318 13.7405C18.2318 18.3533 14.5068 22.0814 9.89404 22.0814C5.28128 22.0814 1.55566 18.3533 1.55566 13.7405C1.55566 9.12776 5.28128 5.40277 9.89404 5.40277ZM9.89404 7.96905C8.13042 7.96905 6.68572 9.41313 6.68572 11.1767C6.68572 12.1058 7.08898 12.9433 7.72613 13.5301C6.07391 14.2041 4.77739 15.624 4.31111 17.4299C4.28682 17.5124 4.27938 17.599 4.28924 17.6845C4.2991 17.77 4.32606 17.8526 4.36851 17.9274C4.41095 18.0023 4.46802 18.0678 4.53632 18.1202C4.60462 18.1725 4.68274 18.2106 4.76605 18.2321C4.84936 18.2536 4.93614 18.2581 5.02124 18.2454C5.10634 18.2327 5.18801 18.203 5.2614 18.1581C5.33478 18.1132 5.39838 18.054 5.44841 17.984C5.49843 17.9139 5.53386 17.8346 5.55259 17.7506C6.06471 15.7672 7.84592 14.3837 9.89341 14.3832C11.9417 14.3827 13.7244 15.7664 14.2367 17.7506C14.2555 17.8346 14.2909 17.9139 14.3409 17.984C14.3909 18.054 14.4545 18.1132 14.5279 18.1581C14.6013 18.203 14.683 18.2327 14.7681 18.2454C14.8532 18.2581 14.94 18.2536 15.0233 18.2321C15.1066 18.2106 15.1847 18.1725 15.253 18.1202C15.3213 18.0678 15.3784 18.0023 15.4208 17.9275C15.4633 17.8526 15.4902 17.77 15.5001 17.6845C15.51 17.599 15.5025 17.5124 15.4782 17.4299C15.0117 15.6231 13.7145 14.2024 12.0613 13.5288C12.6971 12.9421 13.0992 12.1052 13.0992 11.1767C13.0992 9.41313 11.6577 7.96905 9.89404 7.96905ZM9.89404 9.2525C10.9644 9.2525 11.8189 10.1064 11.8189 11.1767C11.8189 12.2471 10.9644 13.0991 9.89404 13.0991C8.82371 13.0991 7.96917 12.2471 7.96917 11.1767C7.96917 10.1064 8.82371 9.2525 9.89404 9.2525ZM22.7204 19.5151C24.4993 19.5151 25.9281 20.9415 25.9281 22.7203C25.9281 24.4991 24.4993 25.928 22.7204 25.928C20.9416 25.928 19.5153 24.4991 19.5153 22.7203C19.5153 20.9415 20.9416 19.5151 22.7204 19.5151Z" fill="#54596B"/>
</svg>
