<svg xmlns="http://www.w3.org/2000/svg" viewBox="0 0 512 512" width="512" height="512">
	<style>
		tspan { white-space:pre }
		.shp0 { fill: #000000;stroke: #ffffff;stroke-width: 5 } 
		.shp1 { fill: #000000 } 
	</style>
	<g id="Layer">
		<g id="Layer">
			<path id="Layer" fill-rule="evenodd" class="shp0" d="M469.23 426.45C469.23 461.65 440.59 490.29 405.39 490.29C370.19 490.29 341.55 461.65 341.55 426.45C341.55 391.25 370.19 362.61 405.39 362.61C440.59 362.61 469.23 391.25 469.23 426.45ZM430.92 426.45C430.92 412.37 419.47 400.92 405.39 400.92C391.3 400.92 379.85 412.37 379.85 426.45C379.85 440.54 391.3 451.99 405.39 451.99C419.47 451.99 430.92 440.54 430.92 426.45Z" />
		</g>
	</g>
	<g id="Layer">
		<g id="Layer">
			<path id="Layer" fill-rule="evenodd" class="shp0" d="M511.44 132.28L464.83 320.61C462.72 329.15 455.05 335.15 446.25 335.15L148.11 335.15C139.25 335.15 131.54 329.08 129.48 320.45L67.24 60.01L19.15 60.01C8.57 60.01 0 51.43 0 40.86C0 30.28 8.57 21.7 19.15 21.7L82.35 21.7C91.22 21.7 98.92 27.79 100.98 36.41L118.22 108.53L492.85 108.53C498.74 108.53 504.3 111.23 507.93 115.88C511.55 120.52 512.85 126.56 511.44 132.28ZM468.38 146.83L127.37 146.83L163.23 296.85L431.26 296.85L468.38 146.83Z" />
			<path id="Shape 1" class="shp1" d="" />
		</g>
	</g>
	<g id="Layer">
		<g id="Layer">
			<path id="Layer" fill-rule="evenodd" class="shp0" d="M237.49 426.45C237.49 461.65 208.85 490.29 173.65 490.29C138.44 490.29 109.81 461.65 109.81 426.45C109.81 391.25 138.44 362.61 173.65 362.61C208.85 362.61 237.49 391.25 237.49 426.45ZM199.18 426.45C199.18 412.37 187.73 400.92 173.65 400.92C159.56 400.92 148.11 412.37 148.11 426.45C148.11 440.54 159.56 451.99 173.65 451.99C187.73 451.99 199.18 440.54 199.18 426.45Z" />
		</g>
	</g>
	<g id="Layer">
	</g>
	<g id="Layer">
	</g>
	<g id="Layer">
	</g>
	<g id="Layer">
	</g>
	<g id="Layer">
	</g>
	<g id="Layer">
	</g>
	<g id="Layer">
	</g>
	<g id="Layer">
	</g>
	<g id="Layer">
	</g>
	<g id="Layer">
	</g>
	<g id="Layer">
	</g>
	<g id="Layer">
	</g>
	<g id="Layer">
	</g>
	<g id="Layer">
	</g>
	<g id="Layer">
	</g>
</svg>