<svg width="30" height="30" viewBox="0 0 30 30" fill="none" xmlns="http://www.w3.org/2000/svg">
<ellipse cx="16" cy="25.5" rx="1" ry="1.5" fill="#00DCDC"/>
<rect x="22" y="15" width="3" height="1" fill="#00DCDC"/>
<path d="M2.34375 14.5312C2.34374 14.552 2.34511 14.5727 2.34785 14.5932L4.11439 27.8421C4.16031 28.1795 4.32671 28.4889 4.5829 28.7132C4.83909 28.9375 5.16777 29.0616 5.50828 29.0625H25.3125C25.6853 29.0621 26.0428 28.9138 26.3064 28.6502C26.57 28.3865 26.7183 28.0291 26.7188 27.6562V25.8123L28.5896 11.7807C28.5896 11.7787 28.5896 11.7767 28.5901 11.7749C28.5912 11.7654 28.5918 11.7558 28.5924 11.7461C28.5928 11.7391 28.5933 11.7321 28.5935 11.7251C28.5935 11.723 28.5935 11.721 28.5935 11.7192V9.84375C28.5935 9.71943 28.5441 9.6002 28.4562 9.51229C28.3683 9.42438 28.249 9.375 28.1247 9.375H18.75C18.6257 9.375 18.5065 9.42438 18.4185 9.51229C18.3306 9.6002 18.2812 9.71943 18.2812 9.84375V11.7187C18.2812 11.7209 18.2812 11.7229 18.2812 11.7246C18.2812 11.7316 18.2819 11.7386 18.2823 11.7456C18.2829 11.7553 18.2835 11.7649 18.2846 11.7744C18.2846 11.7764 18.2846 11.7784 18.2851 11.7803L19.1493 18.2616C18.2068 18.19 17.9155 17.935 17.8302 17.8154C17.7998 17.7724 17.7795 17.7231 17.7708 17.6712C17.762 17.6193 17.7651 17.5661 17.7797 17.5155C17.8114 17.4461 17.8248 17.3697 17.8186 17.2936C17.8125 17.2176 17.787 17.1443 17.7446 17.0809C17.7006 17.0156 17.6407 16.9624 17.5706 16.9264C17.5006 16.8904 17.4225 16.8727 17.3438 16.875C16.4111 16.875 15.6923 17.0566 15.1002 17.3265L15.4646 14.5932C15.4674 14.5727 15.4688 14.552 15.4688 14.5312C15.4679 13.4081 15.1569 12.3069 14.5701 11.3492C13.9833 10.3915 13.1435 9.61431 12.1433 9.10342C12.1832 9.01792 12.1964 8.92233 12.1811 8.8292L11.7124 6.0167C11.6941 5.90725 11.6376 5.80781 11.553 5.73609C11.4683 5.66437 11.361 5.625 11.25 5.625H10.7812V3.75H14.0625C14.1868 3.75 14.306 3.70061 14.394 3.6127C14.4819 3.5248 14.5312 3.40557 14.5312 3.28125V1.40625C14.5312 1.34207 14.5181 1.27857 14.4925 1.21969C14.467 1.16081 14.4296 1.10781 14.3827 1.06396C14.3359 1.02011 14.2805 0.986357 14.22 0.964785C14.1596 0.943213 14.0954 0.934285 14.0313 0.938553L7.00008 1.4073C6.90723 1.41349 6.81833 1.44718 6.74469 1.50407C6.67105 1.56096 6.61601 1.63848 6.58658 1.72676L6.11783 3.13301C6.09434 3.20347 6.08793 3.2785 6.09913 3.35193C6.11033 3.42535 6.13882 3.49506 6.18224 3.55532C6.22567 3.61557 6.28279 3.66465 6.3489 3.69849C6.41502 3.73234 6.48823 3.74999 6.5625 3.75H7.03125V5.625H6.5625C6.45154 5.625 6.34418 5.66437 6.25951 5.73609C6.17485 5.80781 6.11838 5.90725 6.10014 6.0167L5.63139 8.8292C5.61606 8.92233 5.62925 9.01792 5.66924 9.10342C4.66897 9.61431 3.82916 10.3915 3.24239 11.3492C2.65561 12.3069 2.34464 13.4081 2.34375 14.5312V14.5312ZM21.5625 28.125H10.252C10.1437 28.1249 10.04 28.0818 9.96344 28.0053C9.8869 27.9288 9.84386 27.825 9.84375 27.7168V22.9082C9.84386 22.8 9.8869 22.6962 9.96344 22.6197C10.04 22.5431 10.1437 22.5001 10.252 22.5H21.623C21.7313 22.5001 21.835 22.5431 21.9116 22.6197C21.9881 22.6962 22.0311 22.8 22.0312 22.9082V27.7168C22.0311 27.825 21.9881 27.9288 21.9116 28.0053C21.835 28.0818 21.7313 28.1249 21.623 28.125H21.5625ZM11.25 20.625H20.625V21.5625H11.25V20.625ZM25.7812 27.6562C25.7811 27.7805 25.7317 27.8997 25.6438 27.9876C25.5559 28.0754 25.4368 28.1249 25.3125 28.125H22.9053C22.9474 27.993 22.9688 27.8553 22.9688 27.7168V26.25H25.7812V27.6562ZM25.8398 25.3125H22.9688V22.9082C22.9683 22.5514 22.8264 22.2094 22.5742 21.9571C22.3219 21.7048 21.9798 21.5629 21.623 21.5625H21.5625V20.1562C21.5625 20.1431 21.5616 20.1302 21.5606 20.1173C21.5606 20.1155 21.5601 20.1122 21.5598 20.1093V20.1077C21.5245 19.8004 21.4316 19.5026 21.286 19.2298C21.1685 19.0006 21.0014 18.8004 20.7969 18.6439C20.5923 18.4873 20.3555 18.3783 20.1035 18.3248L19.2854 12.1875H27.5896L25.8398 25.3125ZM19.2188 10.3125H27.6562V11.25H19.2188V10.3125ZM17.046 18.3295C17.4424 18.9196 18.3311 19.2187 19.6875 19.2187C20.0391 19.2187 20.2812 19.3576 20.4504 19.6557C20.4562 19.6663 20.4621 19.6769 20.4675 19.6875H13.4192C13.6192 19.5342 13.8097 19.3733 13.9986 19.2135C14.7618 18.5676 15.4872 17.9537 16.8466 17.8336C16.8768 18.0113 16.9448 18.1804 17.046 18.3295ZM7.37643 2.32178L13.5938 1.90728V2.8125H7.21289L7.37643 2.32178ZM7.96875 3.75H9.84375V5.625H7.96875V3.75ZM6.64711 8.4375L6.95959 6.5625H10.8529L11.1654 8.4375H6.64711ZM8.4375 9.375H9.375C10.7368 9.37651 12.0428 9.91607 13.0086 10.8761C13.9744 11.8362 14.5217 13.139 14.5312 14.5008L14.0716 17.9473C13.8304 18.1278 13.6082 18.3156 13.3929 18.4977C12.6387 19.1362 11.9871 19.6875 10.7812 19.6875C10.6569 19.6875 10.5377 19.7369 10.4498 19.8248C10.3619 19.9127 10.3125 20.0319 10.3125 20.1562V21.5625H10.252C9.89519 21.5629 9.55313 21.7048 9.30085 21.9571C9.04856 22.2094 8.90665 22.5514 8.90625 22.9082V27.7168C8.9062 27.8553 8.92761 27.993 8.96971 28.125H5.50828C5.39478 28.1247 5.28522 28.0833 5.19982 28.0085C5.11442 27.9338 5.05895 27.8306 5.04363 27.7182L3.28125 14.5008C3.29083 13.139 3.83812 11.8362 4.8039 10.8761C5.76968 9.91607 7.07571 9.37651 8.4375 9.375V9.375Z" fill="#54596B"/>
<path d="M15.9375 23.4375C15.5667 23.4375 15.2041 23.5475 14.8958 23.7535C14.5875 23.9595 14.3471 24.2524 14.2052 24.595C14.0633 24.9376 14.0262 25.3146 14.0985 25.6783C14.1709 26.042 14.3495 26.3761 14.6117 26.6383C14.8739 26.9005 15.208 27.0791 15.5717 27.1515C15.9354 27.2238 16.3124 27.1867 16.655 27.0448C16.9976 26.9029 17.2905 26.6625 17.4965 26.3542C17.7025 26.0459 17.8125 25.6833 17.8125 25.3125C17.8119 24.8154 17.6142 24.3388 17.2627 23.9873C16.9112 23.6358 16.4346 23.4381 15.9375 23.4375V23.4375ZM15.9375 26.25C15.7521 26.25 15.5708 26.195 15.4167 26.092C15.2625 25.989 15.1423 25.8426 15.0714 25.6713C15.0004 25.5 14.9818 25.3115 15.018 25.1296C15.0542 24.9477 15.1435 24.7807 15.2746 24.6496C15.4057 24.5185 15.5727 24.4292 15.7546 24.393C15.9365 24.3568 16.125 24.3754 16.2963 24.4464C16.4676 24.5173 16.614 24.6375 16.717 24.7917C16.82 24.9458 16.875 25.1271 16.875 25.3125C16.8747 25.561 16.7758 25.7993 16.6001 25.9751C16.4243 26.1508 16.1861 26.2497 15.9375 26.25V26.25Z" fill="#54596B"/>
<rect x="6" y="13" width="6" height="3" fill="#00DCDC"/>
<path d="M23.4375 16.875C24.7734 16.875 25.7812 16.2705 25.7812 15.4688C25.7812 14.667 24.7734 14.0625 23.4375 14.0625C22.1016 14.0625 21.0938 14.667 21.0938 15.4688C21.0938 16.2705 22.1016 16.875 23.4375 16.875ZM23.4375 15C24.345 15 24.8438 15.3521 24.8438 15.4688C24.8438 15.5854 24.345 15.9375 23.4375 15.9375C22.53 15.9375 22.0312 15.5854 22.0312 15.4688C22.0312 15.3521 22.53 15 23.4375 15Z" fill="#54596B"/>
<path d="M6.09375 16.4062H11.7188C11.8431 16.4062 11.9623 16.3569 12.0502 16.269C12.1381 16.181 12.1875 16.0618 12.1875 15.9375V13.125C12.1875 13.0007 12.1381 12.8815 12.0502 12.7935C11.9623 12.7056 11.8431 12.6562 11.7188 12.6562H6.09375C5.96943 12.6562 5.8502 12.7056 5.76229 12.7935C5.67439 12.8815 5.625 13.0007 5.625 13.125V15.9375C5.625 16.0618 5.67439 16.181 5.76229 16.269C5.8502 16.3569 5.96943 16.4062 6.09375 16.4062ZM6.5625 13.5938H11.25V15.4688H6.5625V13.5938Z" fill="#54596B"/>
</svg>
